<?xml version="1.0" encoding="UTF-8" standalone="no"?>
<svg
   xmlns:dc="http://purl.org/dc/elements/1.1/"
   xmlns:cc="http://creativecommons.org/ns#"
   xmlns:rdf="http://www.w3.org/1999/02/22-rdf-syntax-ns#"
   xmlns:svg="http://www.w3.org/2000/svg"
   xmlns="http://www.w3.org/2000/svg"
   xmlns:sodipodi="http://sodipodi.sourceforge.net/DTD/sodipodi-0.dtd"
   xmlns:inkscape="http://www.inkscape.org/namespaces/inkscape"
   height="1000"
   width="1000"
   version="1.1"
   viewBox="0 0 1000 1000"
   id="svg4655"
   inkscape:version="0.91 r13725"
   sodipodi:docname="CasualTux-ColoringBook.svg"
   inkscape:export-xdpi="90"
   inkscape:export-ydpi="90">
  <metadata
     id="metadata6323">
    <rdf:RDF>
      <cc:Work
         rdf:about="">
        <dc:format>image/svg+xml</dc:format>
        <dc:type
           rdf:resource="http://purl.org/dc/dcmitype/StillImage" />
        <dc:title>Casual Tux Coloring Book</dc:title>
        <dc:date>May 12, 2016</dc:date>
        <dc:creator>
          <cc:Agent>
            <dc:title>Troy Dawson</dc:title>
          </cc:Agent>
        </dc:creator>
        <cc:license
           rdf:resource="http://creativecommons.org/licenses/by/3.0/" />
        <dc:subject>
          <rdf:Bag>
            <rdf:li>Casual Tux</rdf:li>
          </rdf:Bag>
        </dc:subject>
        <dc:rights>
          <cc:Agent>
            <dc:title>The copyright holder of this file allows anyone to use it for any purpose, provided that the copyright holder is properly attributed. Redistribution, derivative work, commercial use, and all other use is permitted.</dc:title>
          </cc:Agent>
        </dc:rights>
        <dc:contributor>
          <cc:Agent>
            <dc:title>Troy Dawson, Larry Ewing, Simon Budig, Anja Gerwinski</dc:title>
          </cc:Agent>
        </dc:contributor>
        <dc:description>Original Tux svg came from here.
https://commons.wikimedia.org/wiki/File:Tux.svg

All other work done by Troy Dawson.
Casual Tux Coloring Book is released under the same license as the original Tux.
&quot;The copyright holder of this file allows anyone to use it for any purpose, provided that the copyright holder is properly attributed. Redistribution, derivative work, commercial use, and all other use is permitted.&quot;</dc:description>
      </cc:Work>
      <cc:License
         rdf:about="http://creativecommons.org/licenses/by/3.0/">
        <cc:permits
           rdf:resource="http://creativecommons.org/ns#Reproduction" />
        <cc:permits
           rdf:resource="http://creativecommons.org/ns#Distribution" />
        <cc:requires
           rdf:resource="http://creativecommons.org/ns#Notice" />
        <cc:requires
           rdf:resource="http://creativecommons.org/ns#Attribution" />
        <cc:permits
           rdf:resource="http://creativecommons.org/ns#DerivativeWorks" />
      </cc:License>
    </rdf:RDF>
  </metadata>
  <defs
     id="defs6321" />
  <sodipodi:namedview
     pagecolor="#ffffff"
     bordercolor="#666666"
     borderopacity="1"
     objecttolerance="10"
     gridtolerance="10"
     guidetolerance="10"
     inkscape:pageopacity="0"
     inkscape:pageshadow="2"
     inkscape:window-width="966"
     inkscape:window-height="952"
     id="namedview6319"
     showgrid="false"
     inkscape:zoom="0.68"
     inkscape:cx="538.49481"
     inkscape:cy="462.1595"
     inkscape:window-x="464"
     inkscape:window-y="27"
     inkscape:window-maximized="0"
     inkscape:current-layer="svg4655"
     inkscape:object-paths="false"
     inkscape:snap-intersection-paths="false" />
  <title
     id="title4657">Casual Tux Coloring Book</title>
  <desc
     id="desc4659">For more information see: http://commons.wikimedia.org/wiki/Image:Tux.svg</desc>
  <radialGradient
     id="ag"
     gradientUnits="userSpaceOnUse"
     cy="-551.03998"
     cx="274.82199"
     gradientTransform="matrix(0.5671,0,0,-0.2835,81.263,201.645)"
     r="165.384">
    <stop
       stop-opacity=".502"
       offset="0"
       id="stop4662" />
    <stop
       stop-opacity="0"
       offset="1"
       id="stop4664" />
  </radialGradient>
  <radialGradient
     id="ak"
     gradientUnits="userSpaceOnUse"
     cy="-551.04199"
     cx="268.79401"
     gradientTransform="matrix(0.5823,0,0,-0.2835,-61.6052,201.14)"
     r="165.383">
    <stop
       stop-opacity=".502"
       offset="0"
       id="stop4669" />
    <stop
       stop-opacity="0"
       offset="1"
       id="stop4671" />
  </radialGradient>
  <g
     id="g5648"
     transform="matrix(2.6621722,0,0,2.6621722,-32.886904,-1631.0658)">
    <path
       sodipodi:nodetypes="ccccc"
       inkscape:connector-curvature="0"
       id="path9588-3-1"
       d="m 139.11601,751.76944 0.637,10.4486 15.32798,-4.52344 -2.2328,-7.01231 z"
       style="fill:#ffffff;stroke:#000000;stroke-width:2;stroke-miterlimit:4;stroke-dasharray:none;stroke-opacity:1" />
    <path
       sodipodi:nodetypes="cccc"
       inkscape:connector-curvature="0"
       id="path9588-42"
       d="m 96.874923,831.10134 c 16.890177,2.49328 34.435657,5.81713 33.399837,4.72275 l -25.27888,-18.63555 c -3.11931,4.22529 -5.486787,9.2024 -8.120957,13.9128 z"
       style="fill:#ffffff;stroke:#000000;stroke-width:2;stroke-miterlimit:4;stroke-dasharray:none;stroke-opacity:1" />
    <path
       sodipodi:nodetypes="ccccc"
       inkscape:connector-curvature="0"
       id="path9588-3"
       d="m 277.33624,737.61731 -0.637,10.4486 -15.32798,-4.52344 2.2328,-7.01231 z"
       style="fill:#ffffff;stroke:#000000;stroke-width:2;stroke-miterlimit:4;stroke-dasharray:none;stroke-opacity:1" />
    <path
       sodipodi:nodetypes="cccc"
       inkscape:connector-curvature="0"
       id="path9588"
       d="m 324.83123,818.77964 c -16.89019,2.49328 -34.43567,5.81713 -33.39985,4.72275 l 25.27889,-18.63555 c 3.1193,4.22529 5.48678,9.2024 8.12096,13.9128 z"
       style="fill:#ffffff;stroke:#000000;stroke-width:2;stroke-miterlimit:4;stroke-dasharray:none;stroke-opacity:1" />
    <path
       d="m 326.59254,863.0451 c -4.752,19.584 -28.872,60.48 -41.688,78.48 -12.815,18.072 -11.231,34.344 -34.92,28.008 -23.616,-6.336 -30.24,-5.184 -54.647,-3.744 -24.265,1.439 -19.009,-0.721 -34.2,6.12 -15.12,6.84 -65.879997,-82.944 -69.983997,-99.647 -4.031,-16.705 -5.976,-14.689 4.536,-32.761 10.512997,-18.071 12.023997,-35.928 25.919997,-57.816 13.896,-21.96 29.952,-33.12 28.8,-49.896 -4.535,-62.28 -8.136,-93.384 19.513,-107.784 26.352,-13.68 48.384,-5.544 57.096,-0.864 3.744,2.016 11.376,5.904 17.064,12.744 5.688,6.696 10.8,16.848 13.68,29.664 5.904,25.704 -2.448,17.208 4.248,46.656 6.624,29.375 20.088,43.775 36.504,67.031 16.414,23.257 33.55,61.633 28.078,83.809 z"
       id="path4677"
       inkscape:connector-curvature="0" />
    <path
       style="fill:#ffffff"
       inkscape:connector-curvature="0"
       id="path4681"
       d="m 170.33074,710.4886 c 4.319,-1.728 3.592,-1.958 6.472,-8.222 2.304,-4.824 4.328,-6.898 4.256,-14.242 0,-7.2 -2.232,-9.648 -5.616,-14.328 -3.24,-4.464 -8.424,-4.68 -11.664,-4.104 -1.872,0.288 -4.319,2.664 -5.976,6.192 -1.08,2.376 -1.944,5.4 -2.017,8.568 -0.216,8.496 0.505,11.736 2.448,17.496 2.305,6.769 7.921,10.297 12.097,8.64 z" />
    <path
       d="m 166.29854,681.1856 c 2.16,0 4.896,1.44 6.191,3.384 1.368,1.944 2.376,4.68 2.376,7.776 0,4.608 -0.504,9.72 -3.239,11.304 -0.864,0.504 -2.736,0.936 -3.816,0.936 -2.448,0 -2.664,-1.584 -4.968,-3.96 -0.792,-0.864 -3.168,-5.04 -3.168,-8.496 0,-2.16 -0.504,-5.256 1.368,-7.992 1.296,-2.016 2.952,-2.952 5.256,-2.952 z"
       id="path4723"
       inkscape:connector-curvature="0" />
    <path
       style="fill:#ffffff;stroke:none"
       inkscape:connector-curvature="0"
       id="path4727"
       d="m 165.72274,685.0476 c 0.844,-1.305 4.222,-0.69 5.45,1.996 1.229,2.687 0.998,8.522 0.153,8.829 -2.226,0.691 -1.535,-2.534 -3.454,-5.451 -1.919,-2.762 -2.994,-4.067 -2.149,-5.374 z" />
    <path
       style="fill:#ffffff;stroke:none"
       inkscape:connector-curvature="0"
       id="path4771"
       d="m 214.97074,711.4246 c 10.8,-1.152 14.616,-5.328 16.56,-12.6 1.729,-6.48 1.801,-13.68 -3.023,-22.104 -4.536,-8.063 -7.128,-9.36 -13.681,-9.864 -10.079,-0.864 -14.832,6.192 -17.063,11.232 -2.376,5.472 -1.872,4.68 -1.729,11.592 0.145,7.272 4.245,9.299 6.766,13.835 2.519,4.465 10.946,7.982 12.17,7.909 z" />
    <path
       d="m 214.10654,680.8976 c 5.4,0 8.568,4.824 9.648,11.016 0.432,2.808 -0.216,6.048 -1.944,8.28 -1.944,2.592 -5.4,4.176 -8.208,4.176 -2.664,0 -5.688,0.432 -7.271,-1.728 -1.584,-2.232 -1.944,-7.2 -1.944,-10.728 0,-3.96 1.152,-6.768 3.168,-9 1.511,-1.657 4.247,-2.016 6.551,-2.016 z"
       id="path4813"
       inkscape:connector-curvature="0" />
    <path
       style="fill:#ffffff;stroke:none"
       inkscape:connector-curvature="0"
       id="path4817"
       d="m 214.45174,683.1196 c 0.98,-0.653 2.612,0 4.489,2.122 2.039,2.285 2.938,4.08 0.489,5.385 -1.877,0.98 -2.448,-1.958 -3.59,-3.182 -1.795,-1.959 -3.346,-3.02 -1.388,-4.325 z" />
    <path
       style="fill:#ffffff"
       inkscape:connector-curvature="0"
       id="path4905"
       d="m 181.85074,744.6886 c -9.36,0.36 -24.192,-25.848 -24.552,-14.976 -0.288,9.216 0.216,9.072 0.216,18 0,5.976 -2.736,6.408 -8.64,15.408 -3.024,4.752 -5.4,9.864 -7.272,15.048 -1.152,3.096 -2.232,6.336 -3.096,9.504 -0.36,1.584 -1.008,3.24 -1.368,4.824 -2.952,10.872 -13.464,24.264 -15.912,35.136 -2.448,10.8 -5.328,17.712 -4.968,32.185 0.36,14.472 0.504,10.295 4.896,13.896 4.32,3.601 8.784,6.983 15.624,13.032 7.2,6.264 22.177,17.208 24.192,20.592 2.16,3.456 2.088,11.232 0.792,13.752 -1.296,2.448 -12.6,3.816 -12.528,3.816 -0.071,0 9.864,13.68 11.809,15.623 1.872,1.873 9.936,10.873 42.768,4.752 18.504,-3.455 32.832,-13.823 43.2,-23.832 13.392,-13.031 6.624,-16.775 8.352,-23.327 2.521,-9.433 10.729,-12.96 12.601,-23.616 0.216,-1.512 0.72,-2.664 2.088,-4.896 2.088,-3.168 1.584,-9.432 1.584,-15.191 0,-14.977 -1.729,-30.24 -5.185,-41.472 -3.168,-10.512 -8.208,-17.856 -12.527,-27.36 -8.641,-18.936 -8.208,-27.432 -15.912,-39.528 -8.784,-13.968 -4.464,-23.256 -16.128,-22.68 -14.546,0.79 -26.282,20.734 -40.034,21.31 z" />
    <path
       d="m 186.81854,695.2966 c 5.256,-0.648 12.456,0.648 15.769,3.096 3.096,2.304 5.256,3.528 8.063,4.464 9.433,3.096 21.816,4.536 21.24,13.032 -0.648,10.151 -3.6,14.688 -12.024,17.351 -6.768,2.088 -18.863,13.824 -28.224,13.824 -4.176,0 -10.008,0.216 -13.392,-1.008 -3.24,-1.152 -7.776,-6.624 -13.104,-11.016 -5.328,-4.32 -10.296,-8.928 -10.439,-14.976 -0.217,-6.407 3.96,-8.496 9.863,-13.607 3.097,-2.736 8.712,-7.272 12.601,-9.288 3.599,-1.799 5.903,-1.439 9.647,-1.872 z"
       id="path4947"
       inkscape:connector-curvature="0"
       style="fill:#ffffff;stroke:#000000;stroke-width:2;stroke-miterlimit:4;stroke-dasharray:none;stroke-opacity:1" />
    <path
       style="fill:#000000;stroke:none"
       inkscape:connector-curvature="0"
       id="path4993"
       d="m 189.84274,700.0486 c 1.008,2.088 3.6,2.376 5.328,3.312 1.655,0.936 2.592,1.152 3.239,0.792 1.44,-0.792 0.36,-3.384 -1.079,-4.32 -1.368,-0.935 -8.064,-1.151 -7.488,0.216 z" />
    <path
       style="fill:#000000;stroke:none"
       inkscape:connector-curvature="0"
       id="path5039"
       d="m 174.79474,702.7186 c -0.318,0.794 1.906,2.304 3.019,1.271 1.193,-1.033 2.623,-1.986 3.102,-2.305 2.145,-1.431 1.351,-2.463 -2.226,-1.828 -3.578,0.637 -3.578,2.067 -3.895,2.862 z" />
    <path
       style="fill:#ffffff;stroke:#000000;stroke-width:2;stroke-miterlimit:4;stroke-dasharray:none;stroke-opacity:1"
       inkscape:connector-curvature="0"
       id="path5609"
       d="m 74.354743,890.0576 c -6.479,4.68 -22.896,4.248 -27.072,9.719 -4.104,5.473 0.145,13.393 0.072,28.08 0,6.265 -1.08,11.017 -1.8,14.832 -1.008,4.824 -1.656,8.209 0.36,11.664 3.672,6.121 9.575,7.633 43.344,14.688 18.071997,3.744 35.135997,13.464 46.583997,14.399 11.448,0.865 13.896,-2.951 20.88,-9.144 6.912,-6.192 9.144,-4.248 8.928,-17.856 -0.216,-13.535 -8.928,-17.567 -18.792,-33.191 -9.864,-15.624 -11.448,-18.504 -18,-28.872 -6.552,-10.224 -19.512,-28.8 -26.928,-29.017 -5.903997,-0.144 -9.215997,3.024 -12.887997,6.769 -3.672,3.745 -8.208,13.248 -14.688,17.929 z" />
    <path
       style="fill:#ffffff"
       inkscape:connector-curvature="0"
       id="path6043"
       d="m 294.47674,864.4326 c 0.223,1.065 3.979,0.715 7.331,1.752 3.628,1.15 4.699,1.473 7.671,3.883 2.638,2.238 0.624,2.791 2.122,3.108 0.998,0.185 1.804,-0.329 1.577,-1.946 -0.28,-2.008 -2.227,-3.432 -6.534,-4.992 -3.282,-1.196 -5.501,-2.182 -8.367,-2.525 -2.201,-0.235 -3.968,-0.064 -3.8,0.72 z" />
    <path
       style="fill:#ffffff"
       inkscape:connector-curvature="0"
       id="path5989"
       d="m 277.23074,867.9886 c 0.774,0.645 1.344,-0.661 2.706,-1.362 1.362,-0.7 3.545,-1.706 5.828,-1.713 2.283,-0.009 2.834,0.09 2.754,-0.942 -0.057,-1.012 -1.005,-0.773 -3.733,-0.613 -2.727,0.119 -4.801,1.328 -5.899,2.365 -1.078,1.013 -2.26,1.81 -1.656,2.265 z" />
    <path
       sodipodi:nodetypes="ccccccccccc"
       inkscape:connector-curvature="0"
       id="path7950"
       d="m 193.75378,790.94711 -1.7274,141.21181 c 50.2539,-28.13644 90.29636,-17.34349 107.0063,-18.64477 l -32.43241,-13.50146 5.09697,-27.05753 c 3.01086,-6.71117 7.5295,-9.57944 13.53794,-10.63337 6.3355,-11.25534 8.8916,-21.11559 5.69543,-38.33832 -2.44941,-19.13399 -13.03483,-25.86608 -25.85111,-34.06097 -12.52938,-25.68778 10.07684,-29.5267 19.00858,-30.4563 -2.50151,-4.59208 -2.5082,-1.75889 -6.8835,-20.5197 z"
       style="fill:#ffffff;stroke:#000000;stroke-width:2;stroke-miterlimit:4;stroke-dasharray:none" />
    <g
       style="fill:#000000;stroke:none"
       transform="matrix(0.20420635,0,0,0.20420635,282.22419,877.30521)"
       id="g4984-8-18">
      <g
         style="fill:#000000;stroke:none"
         id="g4977-2-9"
         transform="translate(35.202493,-17.445483)">
        <path
           inkscape:transform-center-y="-0.069157745"
           inkscape:transform-center-x="0.59047885"
           transform="matrix(0.93969262,-0.34202015,0.34202015,0.93969262,288.76829,-127.61206)"
           d="m -259.44614,-326.5824 c -3.34345,6.09687 22.17743,26.11013 16.75532,30.46342 -5.42211,4.35329 -19.44766,-24.8893 -26.12297,-22.94234 -6.67531,1.94697 -2.78083,34.14446 -9.69309,33.38869 -6.91225,-0.75577 3.84783,-31.35097 -2.24904,-34.69441 -6.09687,-3.34345 -26.11013,22.17743 -30.46342,16.75532 -4.35329,-5.42211 24.88931,-19.44766 22.94234,-26.12297 -1.94696,-6.67531 -34.14446,-2.78083 -33.38869,-9.69308 0.75577,-6.91226 31.35097,3.84782 34.69441,-2.24905 3.34345,-6.09687 -22.17743,-26.11012 -16.75532,-30.46342 5.42211,-4.35329 19.44766,24.88931 26.12297,22.94234 6.67531,-1.94696 2.78083,-34.14445 9.69309,-33.38869 6.91225,0.75577 -3.84783,31.35097 2.24904,34.69442 6.09687,3.34344 26.11013,-22.17744 30.46342,-16.75533 4.35329,5.42211 -24.88931,19.44767 -22.94234,26.12297 1.94696,6.67531 34.14446,2.78084 33.38869,9.69309 -0.75577,6.91225 -31.35097,-3.84782 -34.69441,2.24904 z"
           inkscape:randomized="0"
           inkscape:rounded="0.2"
           inkscape:flatsided="false"
           sodipodi:arg2="0.8943031"
           sodipodi:arg1="0.50160402"
           sodipodi:r2="48.745762"
           sodipodi:r1="15.696135"
           sodipodi:cy="-334.12961"
           sodipodi:cx="-273.20871"
           sodipodi:sides="8"
           id="path4936-5-4-27"
           style="fill:#000000;fill-opacity:1;stroke:none;stroke-width:1;stroke-miterlimit:4;stroke-dasharray:none;stroke-opacity:1"
           sodipodi:type="star" />
        <path
           inkscape:transform-center-y="-0.26694487"
           inkscape:transform-center-x="0.53122163"
           transform="translate(190.96573,-14.018692)"
           d="m -259.44614,-326.5824 c -3.34345,6.09687 22.17743,26.11013 16.75532,30.46342 -5.42211,4.35329 -19.44766,-24.8893 -26.12297,-22.94234 -6.67531,1.94697 -2.78083,34.14446 -9.69309,33.38869 -6.91225,-0.75577 3.84783,-31.35097 -2.24904,-34.69441 -6.09687,-3.34345 -26.11013,22.17743 -30.46342,16.75532 -4.35329,-5.42211 24.88931,-19.44766 22.94234,-26.12297 -1.94696,-6.67531 -34.14446,-2.78083 -33.38869,-9.69308 0.75577,-6.91226 31.35097,3.84782 34.69441,-2.24905 3.34345,-6.09687 -22.17743,-26.11012 -16.75532,-30.46342 5.42211,-4.35329 19.44766,24.88931 26.12297,22.94234 6.67531,-1.94696 2.78083,-34.14445 9.69309,-33.38869 6.91225,0.75577 -3.84783,31.35097 2.24904,34.69442 6.09687,3.34344 26.11013,-22.17744 30.46342,-16.75533 4.35329,5.42211 -24.88931,19.44767 -22.94234,26.12297 1.94696,6.67531 34.14446,2.78084 33.38869,9.69309 -0.75577,6.91225 -31.35097,-3.84782 -34.69441,2.24904 z"
           inkscape:randomized="0"
           inkscape:rounded="0.2"
           inkscape:flatsided="false"
           sodipodi:arg2="0.8943031"
           sodipodi:arg1="0.50160402"
           sodipodi:r2="48.745762"
           sodipodi:r1="15.696135"
           sodipodi:cy="-334.12961"
           sodipodi:cx="-273.20871"
           sodipodi:sides="8"
           id="path4936-55-9"
           style="fill:#000000;fill-opacity:1;stroke:none;stroke-width:1;stroke-miterlimit:4;stroke-dasharray:none;stroke-opacity:1"
           sodipodi:type="star" />
        <circle
           transform="matrix(0.44022458,0,0,0.44522337,84.171584,-178.45541)"
           id="path4972-4-6-1-5"
           style="fill:#000000;fill-opacity:1;stroke:none;stroke-width:10;stroke-miterlimit:4;stroke-dasharray:none;stroke-opacity:1"
           cx="-378.02197"
           cy="-381.14102"
           r="26.373627" />
      </g>
    </g>
    <g
       transform="translate(0,600)"
       style="fill:#000000;fill-opacity:1;stroke:none"
       id="g9455">
      <g
         id="g6135"
         transform="translate(21.860743,16.439599)"
         style="fill:#000000;fill-opacity:1;stroke:none">
        <path
           style="fill:#000000;fill-opacity:1;stroke:none"
           inkscape:connector-curvature="0"
           id="path6137"
           d="m 137.79,109.277 c 1.978,1.366 2.031,1.607 4.948,3.514 4.64,3.768 12.885,4.616 16.922,4.75 9.233,1.467 25.738,-7.161 32.273,-11.111 3.291,-2.463 9.38,-7.551 11.659,-7.637 1.405,1.485 -0.66,1.792 -3.587,3.775 -3.906,2.779 -7.25,5.156 -13.172,8.515 -6.338,3.316 -16.078,8.794 -28.548,8.054 -6.542,-0.959 -6.566,-1.024 -10.606,-3.086 -2.4,-1.732 -7.901,-4.608 -9.889,-6.774 z" />
        <linearGradient
           y2="259.30499"
           y1="259.30499"
           gradientTransform="matrix(1,0,0,-1,8.3999,368.3)"
           x2="195.59801"
           gradientUnits="userSpaceOnUse"
           x1="129.342"
           id="al">
          <stop
             id="stop6140"
             offset="0"
             stop-color="#FAC700" />
          <stop
             id="stop6142"
             offset=".415"
             stop-color="#F7C400" />
          <stop
             id="stop6144"
             offset="1"
             stop-color="#F7C400" />
        </linearGradient>
        <path
           inkscape:connector-curvature="0"
           style="fill:#000000;fill-opacity:1;stroke:none"
           id="path6146"
           d="m 137.742,109.259 c 1.926,1.274 2.165,1.643 5.083,3.554 4.616,3.734 12.716,4.616 16.796,4.763 9.365,1.452 26.05,-7.294 32.356,-11.159 3.357,-2.506 9.344,-7.498 11.595,-7.604 1.365,1.472 -0.728,1.768 -3.688,3.814 -3.889,2.753 -7.119,5.065 -12.972,8.383 -6.29,3.291 -16.078,8.795 -28.536,8.104 -6.561,-0.945 -6.851,-1.07 -10.758,-3.079 -2.468,-1.755 -7.876,-4.587 -9.876,-6.776 z" />
        <linearGradient
           y2="259.311"
           y1="259.311"
           gradientTransform="matrix(1,0,0,-1,8.3999,368.3)"
           x2="195.554"
           gradientUnits="userSpaceOnUse"
           x1="129.293"
           id="am">
          <stop
             id="stop6149"
             offset="0"
             stop-color="#F6C200" />
          <stop
             id="stop6151"
             offset=".415"
             stop-color="#EFBC00" />
          <stop
             id="stop6153"
             offset="1"
             stop-color="#EFBC00" />
        </linearGradient>
        <path
           inkscape:connector-curvature="0"
           style="fill:#000000;fill-opacity:1;stroke:none"
           id="path6155"
           d="m 137.693,109.24 c 1.876,1.183 2.3,1.68 5.218,3.595 4.593,3.7 12.548,4.616 16.67,4.776 9.498,1.437 26.364,-7.428 32.44,-11.207 3.425,-2.55 9.308,-7.444 11.528,-7.57 1.326,1.457 -0.795,1.743 -3.788,3.854 -3.87,2.725 -6.99,4.973 -12.771,8.25 -6.243,3.266 -16.078,8.796 -28.525,8.154 -6.579,-0.931 -7.134,-1.117 -10.908,-3.073 -2.536,-1.779 -7.852,-4.567 -9.864,-6.779 z" />
        <linearGradient
           y2="259.31699"
           y1="259.31699"
           gradientTransform="matrix(1,0,0,-1,8.3999,368.3)"
           x2="195.50999"
           gradientUnits="userSpaceOnUse"
           x1="129.245"
           id="an">
          <stop
             id="stop6158"
             offset="0"
             stop-color="#F1BD00" />
          <stop
             id="stop6160"
             offset=".415"
             stop-color="#E8B500" />
          <stop
             id="stop6162"
             offset="1"
             stop-color="#E8B500" />
        </linearGradient>
        <path
           inkscape:connector-curvature="0"
           style="fill:#000000;fill-opacity:1;stroke:none"
           id="path6164"
           d="m 137.645,109.222 c 1.825,1.091 2.434,1.715 5.352,3.635 4.569,3.665 12.38,4.615 16.544,4.789 9.631,1.422 26.677,-7.562 32.524,-11.255 3.491,-2.594 9.271,-7.392 11.463,-7.538 1.287,1.442 -0.861,1.718 -3.889,3.893 -3.853,2.699 -6.86,4.882 -12.57,8.119 -6.195,3.241 -16.078,8.797 -28.513,8.203 -6.6,-0.916 -7.418,-1.163 -11.061,-3.066 -2.603,-1.801 -7.826,-4.546 -9.85,-6.78 z" />
        <linearGradient
           y2="259.32199"
           y1="259.32199"
           gradientTransform="matrix(1,0,0,-1,8.3999,368.3)"
           x2="195.465"
           gradientUnits="userSpaceOnUse"
           x1="129.196"
           id="ao">
          <stop
             id="stop6167"
             offset="0"
             stop-color="#EDB800" />
          <stop
             id="stop6169"
             offset=".415"
             stop-color="#E0AD00" />
          <stop
             id="stop6171"
             offset="1"
             stop-color="#E0AD00" />
        </linearGradient>
        <path
           inkscape:connector-curvature="0"
           style="fill:#000000;fill-opacity:1;stroke:none"
           id="path6173"
           d="m 137.596,109.203 c 1.774,1 2.568,1.752 5.487,3.676 4.545,3.631 12.211,4.615 16.418,4.801 9.764,1.408 26.989,-7.695 32.608,-11.302 3.557,-2.637 9.236,-7.338 11.396,-7.505 1.247,1.427 -0.928,1.693 -3.99,3.932 -3.833,2.672 -6.729,4.791 -12.369,7.986 -6.148,3.217 -16.078,8.799 -28.501,8.254 -6.619,-0.902 -7.702,-1.21 -11.21,-3.059 -2.672,-1.825 -7.803,-4.525 -9.839,-6.783 z" />
        <linearGradient
           y2="259.327"
           y1="259.327"
           gradientTransform="matrix(1,0,0,-1,8.3999,368.3)"
           x2="195.422"
           gradientUnits="userSpaceOnUse"
           x1="129.14799"
           id="ap">
          <stop
             id="stop6176"
             offset="0"
             stop-color="#E9B300" />
          <stop
             id="stop6178"
             offset=".415"
             stop-color="#D8A500" />
          <stop
             id="stop6180"
             offset="1"
             stop-color="#D8A500" />
        </linearGradient>
        <path
           inkscape:connector-curvature="0"
           style="fill:#000000;fill-opacity:1;stroke:none"
           id="path6182"
           d="m 137.548,109.184 c 1.724,0.909 2.703,1.788 5.622,3.717 4.522,3.597 12.043,4.615 16.292,4.814 9.896,1.393 27.303,-7.829 32.692,-11.35 3.624,-2.681 9.2,-7.286 11.331,-7.472 1.208,1.412 -0.995,1.668 -4.092,3.972 -3.814,2.644 -6.6,4.698 -12.168,7.853 -6.101,3.192 -16.077,8.8 -28.489,8.303 -6.638,-0.887 -7.986,-1.256 -11.361,-3.052 -2.741,-1.848 -7.779,-4.504 -9.827,-6.785 z" />
        <linearGradient
           y2="259.332"
           y1="259.332"
           gradientTransform="matrix(1,0,0,-1,8.3999,368.3)"
           x2="195.379"
           gradientUnits="userSpaceOnUse"
           x1="129.099"
           id="aq">
          <stop
             id="stop6185"
             offset="0"
             stop-color="#E4AE00" />
          <stop
             id="stop6187"
             offset=".415"
             stop-color="#D19E00" />
          <stop
             id="stop6189"
             offset="1"
             stop-color="#D19E00" />
        </linearGradient>
        <path
           inkscape:connector-curvature="0"
           style="fill:#000000;fill-opacity:1;stroke:none"
           id="path6191"
           d="m 137.499,109.166 c 1.673,0.817 2.838,1.824 5.757,3.757 4.499,3.562 11.875,4.614 16.166,4.827 10.029,1.378 27.615,-7.963 32.776,-11.398 3.691,-2.725 9.164,-7.232 11.265,-7.439 1.169,1.397 -1.061,1.644 -4.191,4.01 -3.796,2.618 -6.469,4.608 -11.968,7.722 -6.053,3.167 -16.077,8.801 -28.478,8.353 -6.657,-0.873 -8.27,-1.303 -11.512,-3.046 -2.809,-1.87 -7.755,-4.483 -9.815,-6.786 z" />
        <linearGradient
           y2="259.336"
           y1="259.336"
           gradientTransform="matrix(1,0,0,-1,8.3999,368.3)"
           x2="195.338"
           gradientUnits="userSpaceOnUse"
           x1="129.05099"
           id="ar">
          <stop
             id="stop6194"
             offset="0"
             stop-color="#E0A900" />
          <stop
             id="stop6196"
             offset=".415"
             stop-color="#C99600" />
          <stop
             id="stop6198"
             offset="1"
             stop-color="#C99600" />
        </linearGradient>
        <path
           inkscape:connector-curvature="0"
           style="fill:#000000;fill-opacity:1;stroke:none"
           id="path6200"
           d="m 137.451,109.147 c 1.622,0.726 2.972,1.86 5.892,3.798 4.475,3.528 11.705,4.614 16.04,4.84 10.161,1.362 27.929,-8.097 32.859,-11.447 3.757,-2.767 9.128,-7.178 11.2,-7.405 1.13,1.382 -1.128,1.619 -4.294,4.049 -3.777,2.592 -6.339,4.517 -11.767,7.589 -6.005,3.143 -16.077,8.803 -28.466,8.404 -6.676,-0.859 -8.553,-1.35 -11.663,-3.039 -2.876,-1.894 -7.729,-4.462 -9.801,-6.789 z" />
        <linearGradient
           y2="259.34"
           y1="259.34"
           gradientTransform="matrix(1,0,0,-1,8.3999,368.3)"
           x2="195.29601"
           gradientUnits="userSpaceOnUse"
           x1="129.00301"
           id="w">
          <stop
             id="stop6203"
             offset="0"
             stop-color="#DCA400" />
          <stop
             id="stop6205"
             offset=".415"
             stop-color="#C18E00" />
          <stop
             id="stop6207"
             offset="1"
             stop-color="#C18E00" />
        </linearGradient>
        <path
           inkscape:connector-curvature="0"
           style="fill:#000000;fill-opacity:1;stroke:none"
           id="path6209"
           d="m 137.403,109.129 c 1.571,0.634 3.105,1.896 6.026,3.838 4.45,3.494 11.536,4.614 15.913,4.852 10.295,1.348 28.241,-8.23 32.943,-11.494 3.824,-2.811 9.092,-7.125 11.134,-7.373 1.092,1.367 -1.194,1.594 -4.394,4.088 -3.759,2.565 -6.209,4.425 -11.566,7.457 -5.957,3.118 -16.077,8.804 -28.454,8.453 -6.694,-0.844 -8.837,-1.396 -11.813,-3.032 -2.945,-1.916 -7.706,-4.44 -9.789,-6.789 z" />
        <linearGradient
           y2="259.34299"
           y1="259.34299"
           gradientTransform="matrix(1,0,0,-1,8.3999,368.3)"
           x2="195.255"
           gradientUnits="userSpaceOnUse"
           x1="128.95399"
           id="x">
          <stop
             id="stop6212"
             offset="0"
             stop-color="#D79F00" />
          <stop
             id="stop6214"
             offset=".415"
             stop-color="#BA8700" />
          <stop
             id="stop6216"
             offset="1"
             stop-color="#BA8700" />
        </linearGradient>
        <path
           inkscape:connector-curvature="0"
           style="fill:#000000;fill-opacity:1;stroke:none"
           id="path6218"
           d="m 137.354,109.11 c 1.521,0.543 3.241,1.932 6.161,3.879 4.428,3.459 11.368,4.613 15.788,4.865 10.427,1.333 28.554,-8.364 33.026,-11.542 3.892,-2.855 9.057,-7.073 11.068,-7.339 1.052,1.353 -1.261,1.569 -4.495,4.127 -3.74,2.538 -6.078,4.334 -11.365,7.325 -5.91,3.093 -16.077,8.805 -28.441,8.503 -6.716,-0.83 -9.121,-1.443 -11.966,-3.026 -3.012,-1.939 -7.68,-4.42 -9.776,-6.792 z" />
        <linearGradient
           y2="259.34799"
           y1="259.34799"
           gradientTransform="matrix(1,0,0,-1,8.3999,368.3)"
           x2="195.216"
           gradientUnits="userSpaceOnUse"
           x1="128.90601"
           id="y">
          <stop
             id="stop6221"
             offset="0"
             stop-color="#D39B00" />
          <stop
             id="stop6223"
             offset=".415"
             stop-color="#B27F00" />
          <stop
             id="stop6225"
             offset="1"
             stop-color="#B27F00" />
        </linearGradient>
        <path
           inkscape:connector-curvature="0"
           style="fill:#000000;fill-opacity:1;stroke:none"
           id="path6227"
           d="m 137.306,109.091 c 1.47,0.451 3.375,1.969 6.296,3.919 4.403,3.426 11.2,4.614 15.662,4.879 10.559,1.318 28.865,-8.498 33.109,-11.59 3.958,-2.899 9.021,-7.02 11.003,-7.306 1.013,1.337 -1.328,1.544 -4.596,4.167 -3.722,2.511 -5.949,4.242 -11.165,7.192 -5.862,3.068 -16.077,8.807 -28.43,8.553 -6.734,-0.816 -9.405,-1.489 -12.116,-3.019 -3.08,-1.963 -7.656,-4.4 -9.763,-6.795 z" />
        <linearGradient
           y2="259.35001"
           y1="259.35001"
           gradientTransform="matrix(1,0,0,-1,8.3999,368.3)"
           x2="195.17599"
           gradientUnits="userSpaceOnUse"
           x1="128.85699"
           id="z">
          <stop
             id="stop6230"
             offset="0"
             stop-color="#CF9600" />
          <stop
             id="stop6232"
             offset=".415"
             stop-color="#a70" />
          <stop
             id="stop6234"
             offset="1"
             stop-color="#a70" />
        </linearGradient>
        <path
           inkscape:connector-curvature="0"
           style="fill:#000000;fill-opacity:1;stroke:none"
           id="path6236"
           d="m 137.257,109.073 c 1.421,0.359 3.511,2.005 6.432,3.959 4.38,3.392 11.032,4.614 15.536,4.892 10.691,1.303 29.179,-8.631 33.193,-11.638 4.024,-2.942 8.984,-6.967 10.938,-7.274 0.973,1.323 -1.396,1.521 -4.697,4.206 -3.703,2.484 -5.818,4.151 -10.964,7.06 -5.814,3.043 -16.077,8.808 -28.418,8.603 -6.753,-0.802 -9.689,-1.535 -12.268,-3.012 -3.149,-1.986 -7.632,-4.378 -9.752,-6.796 z" />
        <linearGradient
           y2="259.354"
           y1="259.354"
           gradientTransform="matrix(1,0,0,-1,8.3999,368.3)"
           x2="195.13699"
           gradientUnits="userSpaceOnUse"
           x1="128.80901"
           id="aa">
          <stop
             id="stop6239"
             offset="0"
             stop-color="#CA9100" />
          <stop
             id="stop6241"
             offset=".415"
             stop-color="#A37000" />
          <stop
             id="stop6243"
             offset="1"
             stop-color="#A37000" />
        </linearGradient>
        <path
           inkscape:connector-curvature="0"
           style="fill:#000000;fill-opacity:1;stroke:none"
           id="path6245"
           d="m 137.209,109.054 c 1.368,0.268 3.645,2.041 6.565,4 4.356,3.357 10.864,4.613 15.41,4.904 10.824,1.289 29.493,-8.764 33.277,-11.685 4.092,-2.986 8.948,-6.914 10.871,-7.241 0.935,1.308 -1.461,1.496 -4.797,4.245 -3.685,2.457 -5.688,4.06 -10.763,6.928 -5.768,3.018 -16.077,8.809 -28.407,8.653 -6.771,-0.788 -9.972,-1.582 -12.418,-3.006 -3.216,-2.008 -7.607,-4.357 -9.738,-6.798 z" />
        <linearGradient
           y2="259.35599"
           y1="259.35599"
           gradientTransform="matrix(1,0,0,-1,8.3999,368.3)"
           x2="195.099"
           gradientUnits="userSpaceOnUse"
           x1="128.75999"
           id="ab">
          <stop
             id="stop6248"
             offset="0"
             stop-color="#C68C00" />
          <stop
             id="stop6250"
             offset=".415"
             stop-color="#9B6800" />
          <stop
             id="stop6252"
             offset="1"
             stop-color="#9B6800" />
        </linearGradient>
        <path
           inkscape:connector-curvature="0"
           style="fill:#000000;fill-opacity:1;stroke:none"
           id="path6254"
           d="m 137.16,109.036 c 1.318,0.176 3.779,2.077 6.701,4.04 4.333,3.323 10.695,4.613 15.284,4.917 10.957,1.274 29.805,-8.898 33.36,-11.733 4.158,-3.03 8.912,-6.86 10.807,-7.208 0.894,1.292 -1.528,1.471 -4.899,4.284 -3.666,2.43 -5.558,3.968 -10.562,6.796 -5.72,2.993 -16.077,8.81 -28.396,8.702 -6.791,-0.773 -10.256,-1.628 -12.568,-2.999 -3.285,-2.031 -7.583,-4.336 -9.727,-6.799 z" />
        <linearGradient
           y2="259.358"
           y1="259.358"
           gradientTransform="matrix(1,0,0,-1,8.3999,368.3)"
           x2="195.062"
           gradientUnits="userSpaceOnUse"
           x1="128.71201"
           id="ac">
          <stop
             id="stop6257"
             offset="0"
             stop-color="#C28700" />
          <stop
             id="stop6259"
             offset=".415"
             stop-color="#936000" />
          <stop
             id="stop6261"
             offset="1"
             stop-color="#936000" />
        </linearGradient>
        <path
           inkscape:connector-curvature="0"
           style="fill:#000000;fill-opacity:1;stroke:none"
           id="path6263"
           d="m 137.112,109.017 c 1.267,0.085 3.912,2.113 6.835,4.081 4.31,3.289 10.527,4.613 15.158,4.93 11.09,1.258 30.118,-9.032 33.445,-11.782 4.225,-3.072 8.877,-6.807 10.739,-7.174 0.855,1.278 -1.595,1.446 -5,4.323 -3.647,2.404 -5.427,3.877 -10.36,6.663 -5.673,2.969 -16.077,8.812 -28.384,8.753 -6.811,-0.759 -10.54,-1.675 -12.719,-2.992 -3.353,-2.055 -7.559,-4.315 -9.714,-6.802 z" />
        <linearGradient
           y2="259.35999"
           y1="259.35999"
           gradientTransform="matrix(1,0,0,-1,8.3999,368.3)"
           x2="195.02499"
           gradientUnits="userSpaceOnUse"
           x1="128.66299"
           id="ad">
          <stop
             id="stop6266"
             offset="0"
             stop-color="#BD8200" />
          <stop
             id="stop6268"
             offset=".415"
             stop-color="#8C5900" />
          <stop
             id="stop6270"
             offset="1"
             stop-color="#8C5900" />
        </linearGradient>
        <path
           inkscape:connector-curvature="0"
           style="fill:#000000;fill-opacity:1;stroke:none"
           id="path6272"
           d="m 137.063,108.998 c 1.217,-0.006 4.047,2.15 6.97,4.122 4.286,3.254 10.359,4.612 15.032,4.943 11.223,1.243 30.431,-9.166 33.53,-11.83 4.289,-3.116 8.84,-6.753 10.673,-7.141 0.815,1.263 -1.661,1.421 -5.101,4.362 -3.63,2.377 -5.298,3.785 -10.161,6.531 -5.624,2.944 -16.075,8.813 -28.37,8.802 -6.83,-0.744 -10.824,-1.721 -12.87,-2.985 -3.422,-2.077 -7.535,-4.294 -9.703,-6.804 z" />
        <linearGradient
           y2="259.362"
           y1="259.362"
           gradientTransform="matrix(1,0,0,-1,8.3999,368.3)"
           x2="194.989"
           gradientUnits="userSpaceOnUse"
           x1="128.61501"
           id="ae">
          <stop
             id="stop6275"
             offset="0"
             stop-color="#B97D00" />
          <stop
             id="stop6277"
             offset=".415"
             stop-color="#845100" />
          <stop
             id="stop6279"
             offset="1"
             stop-color="#845100" />
        </linearGradient>
        <path
           inkscape:connector-curvature="0"
           style="fill:#000000;fill-opacity:1;stroke:none"
           id="path6281"
           d="m 137.015,108.98 c 1.166,-0.098 4.181,2.185 7.104,4.162 4.262,3.22 10.19,4.612 14.906,4.955 11.354,1.229 30.743,-9.299 33.613,-11.877 4.356,-3.16 8.804,-6.7 10.607,-7.108 0.776,1.248 -1.728,1.397 -5.202,4.401 -3.61,2.35 -5.167,3.694 -9.96,6.399 -5.576,2.919 -16.076,8.814 -28.358,8.852 -6.85,-0.73 -11.108,-1.768 -13.021,-2.979 -3.489,-2.1 -7.51,-4.273 -9.689,-6.805 z" />
        <linearGradient
           y2="259.36401"
           y1="259.36401"
           gradientTransform="matrix(1,0,0,-1,8.3999,368.3)"
           x2="194.95399"
           gradientUnits="userSpaceOnUse"
           x1="128.567"
           id="af">
          <stop
             id="stop6284"
             offset="0"
             stop-color="#B57800" />
          <stop
             id="stop6286"
             offset=".415"
             stop-color="#7C4900" />
          <stop
             id="stop6288"
             offset="1"
             stop-color="#7C4900" />
        </linearGradient>
        <path
           inkscape:connector-curvature="0"
           style="fill:#000000;fill-opacity:1;stroke:none"
           id="path6290"
           d="m 136.967,108.961 c 1.115,-0.189 4.315,2.222 7.239,4.203 4.239,3.186 10.021,4.612 14.78,4.968 11.488,1.214 31.057,-9.433 33.697,-11.925 4.424,-3.203 8.768,-6.647 10.542,-7.075 0.736,1.233 -1.795,1.372 -5.303,4.44 -3.593,2.323 -5.038,3.603 -9.759,6.266 -5.529,2.895 -16.077,8.816 -28.348,8.903 -6.868,-0.716 -11.392,-1.815 -13.172,-2.972 -3.557,-2.124 -7.485,-4.252 -9.676,-6.808 z" />
        <linearGradient
           y2="259.366"
           y1="259.366"
           gradientTransform="matrix(1,0,0,-1,8.3999,368.3)"
           x2="194.918"
           gradientUnits="userSpaceOnUse"
           x1="128.51801"
           id="ah">
          <stop
             id="stop6293"
             offset="0"
             stop-color="#B07300" />
          <stop
             id="stop6295"
             offset=".415"
             stop-color="#754200" />
          <stop
             id="stop6297"
             offset="1"
             stop-color="#754200" />
        </linearGradient>
        <path
           inkscape:connector-curvature="0"
           style="fill:#000000;fill-opacity:1;stroke:none"
           id="path6299"
           d="m 136.918,108.943 c 1.064,-0.281 4.45,2.257 7.374,4.243 4.216,3.151 9.854,4.611 14.654,4.981 11.621,1.199 31.37,-9.567 33.781,-11.973 4.49,-3.247 8.731,-6.594 10.476,-7.042 0.698,1.218 -1.861,1.347 -5.403,4.479 -3.573,2.296 -4.906,3.511 -9.558,6.134 -5.48,2.87 -16.076,8.817 -28.336,8.952 -6.887,-0.701 -11.675,-1.861 -13.323,-2.965 -3.626,-2.146 -7.462,-4.231 -9.665,-6.809 z" />
        <linearGradient
           y2="259.367"
           y1="259.367"
           gradientTransform="matrix(1,0,0,-1,8.3999,368.3)"
           x2="194.886"
           gradientUnits="userSpaceOnUse"
           x1="128.47"
           id="ai">
          <stop
             id="stop6302"
             offset="0"
             stop-color="#AC6E00" />
          <stop
             id="stop6304"
             offset=".415"
             stop-color="#6D3A00" />
          <stop
             id="stop6306"
             offset="1"
             stop-color="#6D3A00" />
        </linearGradient>
        <path
           inkscape:connector-curvature="0"
           style="fill:#000000;fill-opacity:1;stroke:none"
           id="path6308"
           d="m 136.87,108.924 c 1.013,-0.372 4.584,2.294 7.509,4.284 4.191,3.117 9.685,4.611 14.528,4.994 11.753,1.184 31.682,-9.701 33.864,-12.021 4.557,-3.291 8.695,-6.542 10.411,-7.009 0.657,1.203 -1.929,1.322 -5.504,4.518 -3.557,2.269 -4.777,3.42 -9.358,6.002 -5.434,2.845 -16.076,8.818 -28.324,9.002 -6.907,-0.687 -11.959,-1.908 -13.474,-2.959 -3.694,-2.169 -7.437,-4.21 -9.652,-6.811 z" />
        <linearGradient
           y2="259.36899"
           y1="259.36899"
           gradientTransform="matrix(1,0,0,-1,8.3999,368.3)"
           x2="194.85001"
           gradientUnits="userSpaceOnUse"
           x1="128.42101"
           id="aj">
          <stop
             id="stop6311"
             offset="0"
             stop-color="#A86A00" />
          <stop
             id="stop6313"
             offset=".415"
             stop-color="#663200" />
          <stop
             id="stop6315"
             offset="1"
             stop-color="#663200" />
        </linearGradient>
        <path
           inkscape:connector-curvature="0"
           style="fill:#000000;fill-opacity:1;stroke:none"
           id="path6317"
           d="m 136.821,108.905 c 0.963,-0.464 4.719,2.33 7.644,4.324 4.168,3.083 9.517,4.611 14.402,5.007 11.886,1.169 31.995,-9.834 33.948,-12.069 4.624,-3.334 8.66,-6.487 10.345,-6.976 0.619,1.188 -1.995,1.298 -5.604,4.558 -3.537,2.242 -4.647,3.328 -9.157,5.869 -5.386,2.82 -16.076,8.82 -28.313,9.052 -6.926,-0.673 -12.243,-1.954 -13.625,-2.952 -3.762,-2.192 -7.413,-4.189 -9.64,-6.813 z" />
      </g>
    </g>
    <g
       style="fill:#000000;stroke:none"
       transform="matrix(0.20420635,0,0,0.20420635,258.52117,957.19863)"
       id="g4984-8-4">
      <g
         style="fill:#000000;stroke:none"
         id="g4977-2-3"
         transform="translate(35.202493,-17.445483)">
        <path
           inkscape:transform-center-y="-0.069157745"
           inkscape:transform-center-x="0.59047885"
           transform="matrix(0.93969262,-0.34202015,0.34202015,0.93969262,288.76829,-127.61206)"
           d="m -259.44614,-326.5824 c -3.34345,6.09687 22.17743,26.11013 16.75532,30.46342 -5.42211,4.35329 -19.44766,-24.8893 -26.12297,-22.94234 -6.67531,1.94697 -2.78083,34.14446 -9.69309,33.38869 -6.91225,-0.75577 3.84783,-31.35097 -2.24904,-34.69441 -6.09687,-3.34345 -26.11013,22.17743 -30.46342,16.75532 -4.35329,-5.42211 24.88931,-19.44766 22.94234,-26.12297 -1.94696,-6.67531 -34.14446,-2.78083 -33.38869,-9.69308 0.75577,-6.91226 31.35097,3.84782 34.69441,-2.24905 3.34345,-6.09687 -22.17743,-26.11012 -16.75532,-30.46342 5.42211,-4.35329 19.44766,24.88931 26.12297,22.94234 6.67531,-1.94696 2.78083,-34.14445 9.69309,-33.38869 6.91225,0.75577 -3.84783,31.35097 2.24904,34.69442 6.09687,3.34344 26.11013,-22.17744 30.46342,-16.75533 4.35329,5.42211 -24.88931,19.44767 -22.94234,26.12297 1.94696,6.67531 34.14446,2.78084 33.38869,9.69309 -0.75577,6.91225 -31.35097,-3.84782 -34.69441,2.24904 z"
           inkscape:randomized="0"
           inkscape:rounded="0.2"
           inkscape:flatsided="false"
           sodipodi:arg2="0.8943031"
           sodipodi:arg1="0.50160402"
           sodipodi:r2="48.745762"
           sodipodi:r1="15.696135"
           sodipodi:cy="-334.12961"
           sodipodi:cx="-273.20871"
           sodipodi:sides="8"
           id="path4936-5-4-12"
           style="fill:#000000;fill-opacity:1;stroke:none;stroke-width:1;stroke-miterlimit:4;stroke-dasharray:none;stroke-opacity:1"
           sodipodi:type="star" />
        <path
           inkscape:transform-center-y="-0.26694487"
           inkscape:transform-center-x="0.53122163"
           transform="translate(190.96573,-14.018692)"
           d="m -259.44614,-326.5824 c -3.34345,6.09687 22.17743,26.11013 16.75532,30.46342 -5.42211,4.35329 -19.44766,-24.8893 -26.12297,-22.94234 -6.67531,1.94697 -2.78083,34.14446 -9.69309,33.38869 -6.91225,-0.75577 3.84783,-31.35097 -2.24904,-34.69441 -6.09687,-3.34345 -26.11013,22.17743 -30.46342,16.75532 -4.35329,-5.42211 24.88931,-19.44766 22.94234,-26.12297 -1.94696,-6.67531 -34.14446,-2.78083 -33.38869,-9.69308 0.75577,-6.91226 31.35097,3.84782 34.69441,-2.24905 3.34345,-6.09687 -22.17743,-26.11012 -16.75532,-30.46342 5.42211,-4.35329 19.44766,24.88931 26.12297,22.94234 6.67531,-1.94696 2.78083,-34.14445 9.69309,-33.38869 6.91225,0.75577 -3.84783,31.35097 2.24904,34.69442 6.09687,3.34344 26.11013,-22.17744 30.46342,-16.75533 4.35329,5.42211 -24.88931,19.44767 -22.94234,26.12297 1.94696,6.67531 34.14446,2.78084 33.38869,9.69309 -0.75577,6.91225 -31.35097,-3.84782 -34.69441,2.24904 z"
           inkscape:randomized="0"
           inkscape:rounded="0.2"
           inkscape:flatsided="false"
           sodipodi:arg2="0.8943031"
           sodipodi:arg1="0.50160402"
           sodipodi:r2="48.745762"
           sodipodi:r1="15.696135"
           sodipodi:cy="-334.12961"
           sodipodi:cx="-273.20871"
           sodipodi:sides="8"
           id="path4936-55-33"
           style="fill:#000000;fill-opacity:1;stroke:none;stroke-width:1;stroke-miterlimit:4;stroke-dasharray:none;stroke-opacity:1"
           sodipodi:type="star" />
        <circle
           transform="matrix(0.44022458,0,0,0.44522337,84.171584,-178.45541)"
           id="path4972-4-6-1-4"
           style="fill:#000000;fill-opacity:1;stroke:none;stroke-width:10;stroke-miterlimit:4;stroke-dasharray:none;stroke-opacity:1"
           cx="-378.02197"
           cy="-381.14102"
           r="26.373627" />
      </g>
    </g>
    <path
       style="fill:#ffffff;stroke:#000000;stroke-width:2;stroke-miterlimit:4;stroke-dasharray:none;stroke-opacity:1"
       inkscape:connector-curvature="0"
       id="path5433"
       d="m 325.49174,878.9686 c 4.464,6.479 -0.145,14.904 3.096,20.089 5.328,8.496 16.056,17.063 20.16,19.439 2.952,1.8 7.128,3.527 6.983,8.783 -0.216,5.977 -3.168,7.561 -4.823,9.217 -3.313,3.313 -20.017,11.592 -31.104,19.152 -13.968,9.576 -18.792,13.824 -23.328,18.359 -7.056,7.057 -13.752,9.432 -24.48,9.432 -10.728,0 -15.552,-2.231 -18.863,-5.184 -3.313,-2.88 -6.984,-10.225 -6.624,-21.168 0.288,-10.872 3.744,-20.809 5.399,-37.729 0.721,-7.271 0.648,-16.271 0.648,-24.264 0,-10.08 0.144,-18.648 2.304,-19.943 3.889,-2.448 4.752,-2.592 9.36,-2.592 4.607,0 6.696,0.287 8.208,1.799 1.439,1.44 0.864,4.752 0.359,9.433 -0.432,4.681 1.801,6.192 4.032,8.136 2.232,1.872 4.248,4.248 11.305,4.824 7.056,0.504 9.647,-0.648 12.96,-2.736 3.312,-2.088 7.991,-5.832 9.72,-7.992 1.656,-2.088 5.76,-9.287 6.552,-9.287 0.719,0 5.472,-1.656 8.136,2.232 z" />
    <path
       sodipodi:nodetypes="cccc"
       inkscape:connector-curvature="0"
       id="path9588-4"
       d="m 226.83524,780.70348 -32.39785,9.73277 63.55545,-39.47724 z"
       style="fill:#ffffff;stroke:#000000;stroke-width:2;stroke-miterlimit:4;stroke-dasharray:none;stroke-opacity:1" />
    <path
       sodipodi:nodetypes="cccccc"
       inkscape:connector-curvature="0"
       id="path9588-9"
       d="m 243.66891,780.50308 c -1.1159,-3.10177 -2.59429,-6.20353 -6.94694,-9.3053 l 21.27087,-20.63956 19.52746,-12.98551 c 2.85658,3.40737 4.00613,6.81474 4.74413,10.22211 z"
       style="fill:#ffffff;stroke:#000000;stroke-width:2;stroke-miterlimit:4;stroke-dasharray:none;stroke-opacity:1" />
    <path
       sodipodi:nodetypes="cccccc"
       inkscape:connector-curvature="0"
       id="path7952"
       d="m 290.58862,823.19017 c 9.99712,-4.05931 18.13455,-11.66894 33.6338,-5.22418 -3.57918,-8.86673 -14.99392,-25.50493 -18.7311,-30.07126 -7.33726,-12.02666 -6.75491,-9.05395 -20.97343,-27.9618 -27.89925,1.27077 -25.20659,20.40454 -19.41594,29.52728 7.62515,4.88802 23.50253,13.47035 25.48667,33.72996 z"
       style="fill:#ffffff;stroke:#000000;stroke-width:2;stroke-miterlimit:4;stroke-dasharray:none" />
    <path
       sodipodi:nodetypes="cccccccccc"
       inkscape:connector-curvature="0"
       id="path7950-1"
       d="m 199.76859,790.34213 1.7274,141.21181 c -19.02889,-8.62081 -30.82015,-9.16551 -39.16624,-10.83852 3.04809,-15.25014 -4.1427,-13.70156 -24.12169,-33.28914 -6.35639,-4.85254 -16.10618,-13.68961 -21.74289,-17.15976 -0.75961,-11.4412 -0.36407,-23.22944 3.76141,-40.45217 5.89603,-15.61276 6.70271,-14.97527 16.37965,-33.53782 8.04221,-26.75615 -13.63161,-16.81302 -8.92699,-22.85626 2.50151,-4.59208 2.21197,-3.18663 13.63855,-19.16966 z"
       style="fill:#ffffff;stroke:#000000;stroke-width:2;stroke-miterlimit:4;stroke-dasharray:none" />
    <g
       style="fill:#000000;stroke:none"
       transform="matrix(0.20420635,0,0,0.20420635,142.18642,892.73268)"
       id="g4984-8-76">
      <g
         style="fill:#000000;stroke:none"
         id="g4977-2-14"
         transform="translate(35.202493,-17.445483)">
        <path
           inkscape:transform-center-y="-0.069157745"
           inkscape:transform-center-x="0.59047885"
           transform="matrix(0.93969262,-0.34202015,0.34202015,0.93969262,288.76829,-127.61206)"
           d="m -259.44614,-326.5824 c -3.34345,6.09687 22.17743,26.11013 16.75532,30.46342 -5.42211,4.35329 -19.44766,-24.8893 -26.12297,-22.94234 -6.67531,1.94697 -2.78083,34.14446 -9.69309,33.38869 -6.91225,-0.75577 3.84783,-31.35097 -2.24904,-34.69441 -6.09687,-3.34345 -26.11013,22.17743 -30.46342,16.75532 -4.35329,-5.42211 24.88931,-19.44766 22.94234,-26.12297 -1.94696,-6.67531 -34.14446,-2.78083 -33.38869,-9.69308 0.75577,-6.91226 31.35097,3.84782 34.69441,-2.24905 3.34345,-6.09687 -22.17743,-26.11012 -16.75532,-30.46342 5.42211,-4.35329 19.44766,24.88931 26.12297,22.94234 6.67531,-1.94696 2.78083,-34.14445 9.69309,-33.38869 6.91225,0.75577 -3.84783,31.35097 2.24904,34.69442 6.09687,3.34344 26.11013,-22.17744 30.46342,-16.75533 4.35329,5.42211 -24.88931,19.44767 -22.94234,26.12297 1.94696,6.67531 34.14446,2.78084 33.38869,9.69309 -0.75577,6.91225 -31.35097,-3.84782 -34.69441,2.24904 z"
           inkscape:randomized="0"
           inkscape:rounded="0.2"
           inkscape:flatsided="false"
           sodipodi:arg2="0.8943031"
           sodipodi:arg1="0.50160402"
           sodipodi:r2="48.745762"
           sodipodi:r1="15.696135"
           sodipodi:cy="-334.12961"
           sodipodi:cx="-273.20871"
           sodipodi:sides="8"
           id="path4936-5-4-2"
           style="fill:#000000;fill-opacity:1;stroke:none;stroke-width:1;stroke-miterlimit:4;stroke-dasharray:none;stroke-opacity:1"
           sodipodi:type="star" />
        <path
           inkscape:transform-center-y="-0.26694487"
           inkscape:transform-center-x="0.53122163"
           transform="translate(190.96573,-14.018692)"
           d="m -259.44614,-326.5824 c -3.34345,6.09687 22.17743,26.11013 16.75532,30.46342 -5.42211,4.35329 -19.44766,-24.8893 -26.12297,-22.94234 -6.67531,1.94697 -2.78083,34.14446 -9.69309,33.38869 -6.91225,-0.75577 3.84783,-31.35097 -2.24904,-34.69441 -6.09687,-3.34345 -26.11013,22.17743 -30.46342,16.75532 -4.35329,-5.42211 24.88931,-19.44766 22.94234,-26.12297 -1.94696,-6.67531 -34.14446,-2.78083 -33.38869,-9.69308 0.75577,-6.91226 31.35097,3.84782 34.69441,-2.24905 3.34345,-6.09687 -22.17743,-26.11012 -16.75532,-30.46342 5.42211,-4.35329 19.44766,24.88931 26.12297,22.94234 6.67531,-1.94696 2.78083,-34.14445 9.69309,-33.38869 6.91225,0.75577 -3.84783,31.35097 2.24904,34.69442 6.09687,3.34344 26.11013,-22.17744 30.46342,-16.75533 4.35329,5.42211 -24.88931,19.44767 -22.94234,26.12297 1.94696,6.67531 34.14446,2.78084 33.38869,9.69309 -0.75577,6.91225 -31.35097,-3.84782 -34.69441,2.24904 z"
           inkscape:randomized="0"
           inkscape:rounded="0.2"
           inkscape:flatsided="false"
           sodipodi:arg2="0.8943031"
           sodipodi:arg1="0.50160402"
           sodipodi:r2="48.745762"
           sodipodi:r1="15.696135"
           sodipodi:cy="-334.12961"
           sodipodi:cx="-273.20871"
           sodipodi:sides="8"
           id="path4936-55-3"
           style="fill:#000000;fill-opacity:1;stroke:none;stroke-width:1;stroke-miterlimit:4;stroke-dasharray:none;stroke-opacity:1"
           sodipodi:type="star" />
        <circle
           transform="matrix(0.44022458,0,0,0.44522337,84.171584,-178.45541)"
           id="path4972-4-6-1-22"
           style="fill:#000000;fill-opacity:1;stroke:none;stroke-width:10;stroke-miterlimit:4;stroke-dasharray:none;stroke-opacity:1"
           cx="-378.02197"
           cy="-381.14102"
           r="26.373627" />
      </g>
    </g>
    <path
       sodipodi:nodetypes="cccccc"
       inkscape:connector-curvature="0"
       id="path9588-9-7"
       d="m 163.98456,785.54205 c 0.82678,-2.43694 1.92212,-4.87386 5.14698,-7.31079 L 153.372,762.01562 138.90415,751.81344 c -2.11643,2.67702 -2.96812,5.35406 -3.51491,8.0311 z"
       style="fill:#ffffff;stroke:#000000;stroke-width:2;stroke-miterlimit:4;stroke-dasharray:none;stroke-opacity:1" />
    <path
       sodipodi:nodetypes="cccc"
       inkscape:connector-curvature="0"
       id="path9588-4-1"
       d="m 173.81977,782.68686 25.78269,7.90637 -50.57837,-32.06916 z"
       style="fill:#ffffff;stroke:#000000;stroke-width:2;stroke-miterlimit:4;stroke-dasharray:none;stroke-opacity:1" />
    <path
       sodipodi:nodetypes="cccccc"
       inkscape:connector-curvature="0"
       id="path7952-7"
       d="m 120.38143,832.07082 c -9.99712,-4.05931 -8.08889,-7.78766 -23.588137,-1.3429 3.350867,-10.46491 7.003057,-20.71041 13.479957,-32.35437 3.9126,-8.3737 9.72295,-18.87131 20.06019,-28.87505 27.89925,1.27077 17.13493,21.17027 10.94667,27.70852 -6.2335,6.67729 -15.03326,15.74574 -20.89868,34.8638 z"
       style="fill:#ffffff;stroke:#000000;stroke-width:2;stroke-miterlimit:4;stroke-dasharray:none" />
    <g
       style="fill:#ffffff;stroke:#000000;stroke-width:6.93554688;stroke-miterlimit:4;stroke-dasharray:none;stroke-opacity:1"
       id="g4976-1-1-2"
       transform="matrix(0.28836948,0,0,0.28836948,219.46965,886.08637)">
      <path
         sodipodi:type="star"
         style="fill:#ffffff;fill-opacity:1;stroke:#000000;stroke-width:6.93554688;stroke-miterlimit:4;stroke-dasharray:none;stroke-opacity:1"
         id="path5080-4-96-9"
         sodipodi:sides="5"
         sodipodi:cx="2.5382888"
         sodipodi:cy="-258.6398"
         sodipodi:r1="52.516361"
         sodipodi:r2="37.922443"
         sodipodi:arg1="0.81103358"
         sodipodi:arg2="2.9296696"
         inkscape:flatsided="false"
         inkscape:rounded="1.08"
         inkscape:randomized="0"
         d="m 38.708904,-220.56547 c -63.667622,-57.101 11.5358,-41.33884 -73.244666,-30.09771 -42.870637,5.68426 -5.471646,77.73073 12.040544,38.18929 34.6319,-78.19668 42.880329,-1.8032 5.99078,-78.96052 -18.653808,-39.01586 -75.617156,18.81628 -32.599447,23.25238 85.071314,8.77279 14.965702,40.2244 76.947172,-18.70257 31.34195,-29.79739 -41.262326,-66.10164 -32.1881095,-23.81854 17.9450635,83.61857 -33.6310165,26.66325 41.5651875,67.4017 38.024198,20.60007 50.115635,-59.66933 12.706101,-37.97304 -73.980655,42.90632 -35.750813,-23.74561 -51.2584737,60.35911 -7.8417035,42.52893 72.2354917,29.22396 40.0409117,0.3499 z"
         transform="translate(-164.98879,17.13345)"
         inkscape:transform-center-x="1.8231288"
         inkscape:transform-center-y="0.085001806" />
      <circle
         style="fill:#ffffff;fill-opacity:1;stroke:#000000;stroke-width:6.93554688;stroke-miterlimit:4;stroke-dasharray:none;stroke-opacity:1"
         id="path4974-5-91-2"
         transform="translate(120.94395,-62.83186)"
         cx="-282.00589"
         cy="-178.65309"
         r="17.109144" />
    </g>
    <g
       style="fill:#ffffff;stroke:#000000;stroke-width:7.26135731;stroke-miterlimit:4;stroke-dasharray:none;stroke-opacity:1"
       id="g4976-1-5-2-0"
       transform="matrix(-0.19411508,0.07065211,0.07065211,0.19411508,224.11645,852.91352)">
      <path
         sodipodi:type="star"
         style="fill:#ffffff;fill-opacity:1;stroke:#000000;stroke-width:7.26135731;stroke-miterlimit:4;stroke-dasharray:none;stroke-opacity:1"
         id="path5080-4-9-8-7"
         sodipodi:sides="5"
         sodipodi:cx="2.5382888"
         sodipodi:cy="-258.6398"
         sodipodi:r1="52.516361"
         sodipodi:r2="37.922443"
         sodipodi:arg1="0.81103358"
         sodipodi:arg2="2.9296696"
         inkscape:flatsided="false"
         inkscape:rounded="1.08"
         inkscape:randomized="0"
         d="m 38.708904,-220.56547 c -63.667622,-57.101 11.5358,-41.33884 -73.244666,-30.09771 -42.870637,5.68426 -5.471646,77.73073 12.040544,38.18929 34.6319,-78.19668 42.880329,-1.8032 5.99078,-78.96052 -18.653808,-39.01586 -75.617156,18.81628 -32.599447,23.25238 85.071314,8.77279 14.965702,40.2244 76.947172,-18.70257 31.34195,-29.79739 -41.262326,-66.10164 -32.1881095,-23.81854 17.9450635,83.61857 -33.6310165,26.66325 41.5651875,67.4017 38.024198,20.60007 50.115635,-59.66933 12.706101,-37.97304 -73.980655,42.90632 -35.750813,-23.74561 -51.2584737,60.35911 -7.8417035,42.52893 72.2354917,29.22396 40.0409117,0.3499 z"
         transform="translate(-164.98879,17.13345)"
         inkscape:transform-center-x="1.8231288"
         inkscape:transform-center-y="0.085001806" />
      <circle
         style="fill:#ffffff;fill-opacity:1;stroke:#000000;stroke-width:7.26135731;stroke-miterlimit:4;stroke-dasharray:none;stroke-opacity:1"
         id="path4974-5-9-8-9"
         transform="translate(120.94395,-62.83186)"
         cx="-282.00589"
         cy="-178.65309"
         r="17.109144" />
    </g>
    <g
       style="fill:#ffffff;stroke:#000000;stroke-width:7.26135731;stroke-miterlimit:4;stroke-dasharray:none;stroke-opacity:1"
       id="g4976-1-5-2-4"
       transform="matrix(-0.19411508,0.07065211,0.07065211,0.19411508,122.32674,913.53991)">
      <path
         sodipodi:type="star"
         style="fill:#ffffff;fill-opacity:1;stroke:#000000;stroke-width:7.26135731;stroke-miterlimit:4;stroke-dasharray:none;stroke-opacity:1"
         id="path5080-4-9-8-8"
         sodipodi:sides="5"
         sodipodi:cx="2.5382888"
         sodipodi:cy="-258.6398"
         sodipodi:r1="52.516361"
         sodipodi:r2="37.922443"
         sodipodi:arg1="0.81103358"
         sodipodi:arg2="2.9296696"
         inkscape:flatsided="false"
         inkscape:rounded="1.08"
         inkscape:randomized="0"
         d="m 38.708904,-220.56547 c -63.667622,-57.101 11.5358,-41.33884 -73.244666,-30.09771 -42.870637,5.68426 -5.471646,77.73073 12.040544,38.18929 34.6319,-78.19668 42.880329,-1.8032 5.99078,-78.96052 -18.653808,-39.01586 -75.617156,18.81628 -32.599447,23.25238 85.071314,8.77279 14.965702,40.2244 76.947172,-18.70257 31.34195,-29.79739 -41.262326,-66.10164 -32.1881095,-23.81854 17.9450635,83.61857 -33.6310165,26.66325 41.5651875,67.4017 38.024198,20.60007 50.115635,-59.66933 12.706101,-37.97304 -73.980655,42.90632 -35.750813,-23.74561 -51.2584737,60.35911 -7.8417035,42.52893 72.2354917,29.22396 40.0409117,0.3499 z"
         transform="translate(-164.98879,17.13345)"
         inkscape:transform-center-x="1.8231288"
         inkscape:transform-center-y="0.085001806" />
      <circle
         style="fill:#ffffff;fill-opacity:1;stroke:#000000;stroke-width:7.26135731;stroke-miterlimit:4;stroke-dasharray:none;stroke-opacity:1"
         id="path4974-5-9-8-8"
         transform="translate(120.94395,-62.83186)"
         cx="-282.00589"
         cy="-178.65309"
         r="17.109144" />
    </g>
    <g
       style="fill:#ffffff;stroke:#000000;stroke-width:6.93554688;stroke-miterlimit:4;stroke-dasharray:none;stroke-opacity:1"
       id="g4976-1-1"
       transform="matrix(0.28836948,0,0,0.28836948,309.20733,910.06278)">
      <path
         sodipodi:type="star"
         style="fill:#ffffff;fill-opacity:1;stroke:#000000;stroke-width:6.93554688;stroke-miterlimit:4;stroke-dasharray:none;stroke-opacity:1"
         id="path5080-4-96"
         sodipodi:sides="5"
         sodipodi:cx="2.5382888"
         sodipodi:cy="-258.6398"
         sodipodi:r1="52.516361"
         sodipodi:r2="37.922443"
         sodipodi:arg1="0.81103358"
         sodipodi:arg2="2.9296696"
         inkscape:flatsided="false"
         inkscape:rounded="1.08"
         inkscape:randomized="0"
         d="m 38.708904,-220.56547 c -63.667622,-57.101 11.5358,-41.33884 -73.244666,-30.09771 -42.870637,5.68426 -5.471646,77.73073 12.040544,38.18929 34.6319,-78.19668 42.880329,-1.8032 5.99078,-78.96052 -18.653808,-39.01586 -75.617156,18.81628 -32.599447,23.25238 85.071314,8.77279 14.965702,40.2244 76.947172,-18.70257 31.34195,-29.79739 -41.262326,-66.10164 -32.1881095,-23.81854 17.9450635,83.61857 -33.6310165,26.66325 41.5651875,67.4017 38.024198,20.60007 50.115635,-59.66933 12.706101,-37.97304 -73.980655,42.90632 -35.750813,-23.74561 -51.2584737,60.35911 -7.8417035,42.52893 72.2354917,29.22396 40.0409117,0.3499 z"
         transform="translate(-164.98879,17.13345)"
         inkscape:transform-center-x="1.8231288"
         inkscape:transform-center-y="0.085001806" />
      <circle
         style="fill:#ffffff;fill-opacity:1;stroke:#000000;stroke-width:6.93554688;stroke-miterlimit:4;stroke-dasharray:none;stroke-opacity:1"
         id="path4974-5-91"
         transform="translate(120.94395,-62.83186)"
         cx="-282.00589"
         cy="-178.65309"
         r="17.109144" />
    </g>
    <g
       style="fill:#000000;stroke:none"
       transform="matrix(0.20420635,0,0,0.20420635,235.55895,903.04825)"
       id="g4984-8-11">
      <g
         style="fill:#000000;stroke:none"
         id="g4977-2-38"
         transform="translate(35.202493,-17.445483)">
        <path
           inkscape:transform-center-y="-0.069157745"
           inkscape:transform-center-x="0.59047885"
           transform="matrix(0.93969262,-0.34202015,0.34202015,0.93969262,288.76829,-127.61206)"
           d="m -259.44614,-326.5824 c -3.34345,6.09687 22.17743,26.11013 16.75532,30.46342 -5.42211,4.35329 -19.44766,-24.8893 -26.12297,-22.94234 -6.67531,1.94697 -2.78083,34.14446 -9.69309,33.38869 -6.91225,-0.75577 3.84783,-31.35097 -2.24904,-34.69441 -6.09687,-3.34345 -26.11013,22.17743 -30.46342,16.75532 -4.35329,-5.42211 24.88931,-19.44766 22.94234,-26.12297 -1.94696,-6.67531 -34.14446,-2.78083 -33.38869,-9.69308 0.75577,-6.91226 31.35097,3.84782 34.69441,-2.24905 3.34345,-6.09687 -22.17743,-26.11012 -16.75532,-30.46342 5.42211,-4.35329 19.44766,24.88931 26.12297,22.94234 6.67531,-1.94696 2.78083,-34.14445 9.69309,-33.38869 6.91225,0.75577 -3.84783,31.35097 2.24904,34.69442 6.09687,3.34344 26.11013,-22.17744 30.46342,-16.75533 4.35329,5.42211 -24.88931,19.44767 -22.94234,26.12297 1.94696,6.67531 34.14446,2.78084 33.38869,9.69309 -0.75577,6.91225 -31.35097,-3.84782 -34.69441,2.24904 z"
           inkscape:randomized="0"
           inkscape:rounded="0.2"
           inkscape:flatsided="false"
           sodipodi:arg2="0.8943031"
           sodipodi:arg1="0.50160402"
           sodipodi:r2="48.745762"
           sodipodi:r1="15.696135"
           sodipodi:cy="-334.12961"
           sodipodi:cx="-273.20871"
           sodipodi:sides="8"
           id="path4936-5-4-7"
           style="fill:#000000;fill-opacity:1;stroke:none;stroke-width:1;stroke-miterlimit:4;stroke-dasharray:none;stroke-opacity:1"
           sodipodi:type="star" />
        <path
           inkscape:transform-center-y="-0.26694487"
           inkscape:transform-center-x="0.53122163"
           transform="translate(190.96573,-14.018692)"
           d="m -259.44614,-326.5824 c -3.34345,6.09687 22.17743,26.11013 16.75532,30.46342 -5.42211,4.35329 -19.44766,-24.8893 -26.12297,-22.94234 -6.67531,1.94697 -2.78083,34.14446 -9.69309,33.38869 -6.91225,-0.75577 3.84783,-31.35097 -2.24904,-34.69441 -6.09687,-3.34345 -26.11013,22.17743 -30.46342,16.75532 -4.35329,-5.42211 24.88931,-19.44766 22.94234,-26.12297 -1.94696,-6.67531 -34.14446,-2.78083 -33.38869,-9.69308 0.75577,-6.91226 31.35097,3.84782 34.69441,-2.24905 3.34345,-6.09687 -22.17743,-26.11012 -16.75532,-30.46342 5.42211,-4.35329 19.44766,24.88931 26.12297,22.94234 6.67531,-1.94696 2.78083,-34.14445 9.69309,-33.38869 6.91225,0.75577 -3.84783,31.35097 2.24904,34.69442 6.09687,3.34344 26.11013,-22.17744 30.46342,-16.75533 4.35329,5.42211 -24.88931,19.44767 -22.94234,26.12297 1.94696,6.67531 34.14446,2.78084 33.38869,9.69309 -0.75577,6.91225 -31.35097,-3.84782 -34.69441,2.24904 z"
           inkscape:randomized="0"
           inkscape:rounded="0.2"
           inkscape:flatsided="false"
           sodipodi:arg2="0.8943031"
           sodipodi:arg1="0.50160402"
           sodipodi:r2="48.745762"
           sodipodi:r1="15.696135"
           sodipodi:cy="-334.12961"
           sodipodi:cx="-273.20871"
           sodipodi:sides="8"
           id="path4936-55-4"
           style="fill:#000000;fill-opacity:1;stroke:none;stroke-width:1;stroke-miterlimit:4;stroke-dasharray:none;stroke-opacity:1"
           sodipodi:type="star" />
        <circle
           transform="matrix(0.44022458,0,0,0.44522337,84.171584,-178.45541)"
           id="path4972-4-6-1-27"
           style="fill:#000000;fill-opacity:1;stroke:none;stroke-width:10;stroke-miterlimit:4;stroke-dasharray:none;stroke-opacity:1"
           cx="-378.02197"
           cy="-381.14102"
           r="26.373627" />
      </g>
    </g>
    <g
       style="fill:#000000;stroke:none;stroke-width:0.48970073;stroke-miterlimit:4;stroke-dasharray:none;stroke-opacity:1"
       transform="matrix(0.20420635,0,0,0.20420635,182.55395,927.20978)"
       id="g4984-8-1">
      <g
         style="fill:#000000;stroke:none;stroke-width:0.48970073;stroke-miterlimit:4;stroke-dasharray:none;stroke-opacity:1"
         id="g4977-2-6"
         transform="translate(35.202493,-17.445483)">
        <path
           inkscape:transform-center-y="-0.069157745"
           inkscape:transform-center-x="0.59047885"
           transform="matrix(0.93969262,-0.34202015,0.34202015,0.93969262,288.76829,-127.61206)"
           d="m -259.44614,-326.5824 c -3.34345,6.09687 22.17743,26.11013 16.75532,30.46342 -5.42211,4.35329 -19.44766,-24.8893 -26.12297,-22.94234 -6.67531,1.94697 -2.78083,34.14446 -9.69309,33.38869 -6.91225,-0.75577 3.84783,-31.35097 -2.24904,-34.69441 -6.09687,-3.34345 -26.11013,22.17743 -30.46342,16.75532 -4.35329,-5.42211 24.88931,-19.44766 22.94234,-26.12297 -1.94696,-6.67531 -34.14446,-2.78083 -33.38869,-9.69308 0.75577,-6.91226 31.35097,3.84782 34.69441,-2.24905 3.34345,-6.09687 -22.17743,-26.11012 -16.75532,-30.46342 5.42211,-4.35329 19.44766,24.88931 26.12297,22.94234 6.67531,-1.94696 2.78083,-34.14445 9.69309,-33.38869 6.91225,0.75577 -3.84783,31.35097 2.24904,34.69442 6.09687,3.34344 26.11013,-22.17744 30.46342,-16.75533 4.35329,5.42211 -24.88931,19.44767 -22.94234,26.12297 1.94696,6.67531 34.14446,2.78084 33.38869,9.69309 -0.75577,6.91225 -31.35097,-3.84782 -34.69441,2.24904 z"
           inkscape:randomized="0"
           inkscape:rounded="0.2"
           inkscape:flatsided="false"
           sodipodi:arg2="0.8943031"
           sodipodi:arg1="0.50160402"
           sodipodi:r2="48.745762"
           sodipodi:r1="15.696135"
           sodipodi:cy="-334.12961"
           sodipodi:cx="-273.20871"
           sodipodi:sides="8"
           id="path4936-5-4-8"
           style="fill:#000000;fill-opacity:1;stroke:none;stroke-width:0.48970073;stroke-miterlimit:4;stroke-dasharray:none;stroke-opacity:1"
           sodipodi:type="star" />
        <path
           inkscape:transform-center-y="-0.26694487"
           inkscape:transform-center-x="0.53122163"
           transform="translate(190.96573,-14.018692)"
           d="m -259.44614,-326.5824 c -3.34345,6.09687 22.17743,26.11013 16.75532,30.46342 -5.42211,4.35329 -19.44766,-24.8893 -26.12297,-22.94234 -6.67531,1.94697 -2.78083,34.14446 -9.69309,33.38869 -6.91225,-0.75577 3.84783,-31.35097 -2.24904,-34.69441 -6.09687,-3.34345 -26.11013,22.17743 -30.46342,16.75532 -4.35329,-5.42211 24.88931,-19.44766 22.94234,-26.12297 -1.94696,-6.67531 -34.14446,-2.78083 -33.38869,-9.69308 0.75577,-6.91226 31.35097,3.84782 34.69441,-2.24905 3.34345,-6.09687 -22.17743,-26.11012 -16.75532,-30.46342 5.42211,-4.35329 19.44766,24.88931 26.12297,22.94234 6.67531,-1.94696 2.78083,-34.14445 9.69309,-33.38869 6.91225,0.75577 -3.84783,31.35097 2.24904,34.69442 6.09687,3.34344 26.11013,-22.17744 30.46342,-16.75533 4.35329,5.42211 -24.88931,19.44767 -22.94234,26.12297 1.94696,6.67531 34.14446,2.78084 33.38869,9.69309 -0.75577,6.91225 -31.35097,-3.84782 -34.69441,2.24904 z"
           inkscape:randomized="0"
           inkscape:rounded="0.2"
           inkscape:flatsided="false"
           sodipodi:arg2="0.8943031"
           sodipodi:arg1="0.50160402"
           sodipodi:r2="48.745762"
           sodipodi:r1="15.696135"
           sodipodi:cy="-334.12961"
           sodipodi:cx="-273.20871"
           sodipodi:sides="8"
           id="path4936-55-57"
           style="fill:#000000;fill-opacity:1;stroke:none;stroke-width:0.48970073;stroke-miterlimit:4;stroke-dasharray:none;stroke-opacity:1"
           sodipodi:type="star" />
        <circle
           transform="matrix(0.44022458,0,0,0.44522337,84.171584,-178.45541)"
           id="path4972-4-6-1-6"
           style="fill:#000000;fill-opacity:1;stroke:none;stroke-width:1.10612607;stroke-miterlimit:4;stroke-dasharray:none;stroke-opacity:1"
           cx="-378.02197"
           cy="-381.14102"
           r="26.373627" />
      </g>
    </g>
    <g
       style="fill:#ffffff;stroke:#000000;stroke-width:7.26135731;stroke-miterlimit:4;stroke-dasharray:none;stroke-opacity:1"
       id="g4976-1-5-2-3"
       transform="matrix(-0.19411508,0.07065211,0.07065211,0.19411508,202.63994,924.27817)">
      <path
         sodipodi:type="star"
         style="fill:#ffffff;fill-opacity:1;stroke:#000000;stroke-width:7.26135731;stroke-miterlimit:4;stroke-dasharray:none;stroke-opacity:1"
         id="path5080-4-9-8-2"
         sodipodi:sides="5"
         sodipodi:cx="2.5382888"
         sodipodi:cy="-258.6398"
         sodipodi:r1="52.516361"
         sodipodi:r2="37.922443"
         sodipodi:arg1="0.81103358"
         sodipodi:arg2="2.9296696"
         inkscape:flatsided="false"
         inkscape:rounded="1.08"
         inkscape:randomized="0"
         d="m 38.708904,-220.56547 c -63.667622,-57.101 11.5358,-41.33884 -73.244666,-30.09771 -42.870637,5.68426 -5.471646,77.73073 12.040544,38.18929 34.6319,-78.19668 42.880329,-1.8032 5.99078,-78.96052 -18.653808,-39.01586 -75.617156,18.81628 -32.599447,23.25238 85.071314,8.77279 14.965702,40.2244 76.947172,-18.70257 31.34195,-29.79739 -41.262326,-66.10164 -32.1881095,-23.81854 17.9450635,83.61857 -33.6310165,26.66325 41.5651875,67.4017 38.024198,20.60007 50.115635,-59.66933 12.706101,-37.97304 -73.980655,42.90632 -35.750813,-23.74561 -51.2584737,60.35911 -7.8417035,42.52893 72.2354917,29.22396 40.0409117,0.3499 z"
         transform="translate(-164.98879,17.13345)"
         inkscape:transform-center-x="1.8231288"
         inkscape:transform-center-y="0.085001806" />
      <circle
         style="fill:#ffffff;fill-opacity:1;stroke:#000000;stroke-width:7.26135731;stroke-miterlimit:4;stroke-dasharray:none;stroke-opacity:1"
         id="path4974-5-9-8-0"
         transform="translate(120.94395,-62.83186)"
         cx="-282.00589"
         cy="-178.65309"
         r="17.109144" />
    </g>
    <g
       style="fill:#ffffff;stroke:#000000;stroke-width:6.93554688;stroke-miterlimit:4;stroke-dasharray:none;stroke-opacity:1"
       id="g4976-1-1-8"
       transform="matrix(0.28836948,0,0,0.28836948,225.2819,964.31215)">
      <path
         sodipodi:type="star"
         style="fill:#ffffff;fill-opacity:1;stroke:#000000;stroke-width:6.93554688;stroke-miterlimit:4;stroke-dasharray:none;stroke-opacity:1"
         id="path5080-4-96-3"
         sodipodi:sides="5"
         sodipodi:cx="2.5382888"
         sodipodi:cy="-258.6398"
         sodipodi:r1="52.516361"
         sodipodi:r2="37.922443"
         sodipodi:arg1="0.81103358"
         sodipodi:arg2="2.9296696"
         inkscape:flatsided="false"
         inkscape:rounded="1.08"
         inkscape:randomized="0"
         d="m 38.708904,-220.56547 c -63.667622,-57.101 11.5358,-41.33884 -73.244666,-30.09771 -42.870637,5.68426 -5.471646,77.73073 12.040544,38.18929 34.6319,-78.19668 42.880329,-1.8032 5.99078,-78.96052 -18.653808,-39.01586 -75.617156,18.81628 -32.599447,23.25238 85.071314,8.77279 14.965702,40.2244 76.947172,-18.70257 31.34195,-29.79739 -41.262326,-66.10164 -32.1881095,-23.81854 17.9450635,83.61857 -33.6310165,26.66325 41.5651875,67.4017 38.024198,20.60007 50.115635,-59.66933 12.706101,-37.97304 -73.980655,42.90632 -35.750813,-23.74561 -51.2584737,60.35911 -7.8417035,42.52893 72.2354917,29.22396 40.0409117,0.3499 z"
         transform="translate(-164.98879,17.13345)"
         inkscape:transform-center-x="1.8231288"
         inkscape:transform-center-y="0.085001806" />
      <circle
         style="fill:#ffffff;fill-opacity:1;stroke:#000000;stroke-width:6.93554688;stroke-miterlimit:4;stroke-dasharray:none;stroke-opacity:1"
         id="path4974-5-91-6"
         transform="translate(120.94395,-62.83186)"
         cx="-282.00589"
         cy="-178.65309"
         r="17.109144" />
    </g>
    <g
       style="fill:#000000;stroke:none"
       transform="matrix(0.20420635,0,0,0.20420635,142.7581,856.25557)"
       id="g4984-8-7">
      <g
         style="fill:#000000;stroke:none"
         id="g4977-2-1"
         transform="translate(35.202493,-17.445483)">
        <path
           inkscape:transform-center-y="-0.069157745"
           inkscape:transform-center-x="0.59047885"
           transform="matrix(0.93969262,-0.34202015,0.34202015,0.93969262,288.76829,-127.61206)"
           d="m -259.44614,-326.5824 c -3.34345,6.09687 22.17743,26.11013 16.75532,30.46342 -5.42211,4.35329 -19.44766,-24.8893 -26.12297,-22.94234 -6.67531,1.94697 -2.78083,34.14446 -9.69309,33.38869 -6.91225,-0.75577 3.84783,-31.35097 -2.24904,-34.69441 -6.09687,-3.34345 -26.11013,22.17743 -30.46342,16.75532 -4.35329,-5.42211 24.88931,-19.44766 22.94234,-26.12297 -1.94696,-6.67531 -34.14446,-2.78083 -33.38869,-9.69308 0.75577,-6.91226 31.35097,3.84782 34.69441,-2.24905 3.34345,-6.09687 -22.17743,-26.11012 -16.75532,-30.46342 5.42211,-4.35329 19.44766,24.88931 26.12297,22.94234 6.67531,-1.94696 2.78083,-34.14445 9.69309,-33.38869 6.91225,0.75577 -3.84783,31.35097 2.24904,34.69442 6.09687,3.34344 26.11013,-22.17744 30.46342,-16.75533 4.35329,5.42211 -24.88931,19.44767 -22.94234,26.12297 1.94696,6.67531 34.14446,2.78084 33.38869,9.69309 -0.75577,6.91225 -31.35097,-3.84782 -34.69441,2.24904 z"
           inkscape:randomized="0"
           inkscape:rounded="0.2"
           inkscape:flatsided="false"
           sodipodi:arg2="0.8943031"
           sodipodi:arg1="0.50160402"
           sodipodi:r2="48.745762"
           sodipodi:r1="15.696135"
           sodipodi:cy="-334.12961"
           sodipodi:cx="-273.20871"
           sodipodi:sides="8"
           id="path4936-5-4-1"
           style="fill:#000000;fill-opacity:1;stroke:none;stroke-width:1;stroke-miterlimit:4;stroke-dasharray:none;stroke-opacity:1"
           sodipodi:type="star" />
        <path
           inkscape:transform-center-y="-0.26694487"
           inkscape:transform-center-x="0.53122163"
           transform="translate(190.96573,-14.018692)"
           d="m -259.44614,-326.5824 c -3.34345,6.09687 22.17743,26.11013 16.75532,30.46342 -5.42211,4.35329 -19.44766,-24.8893 -26.12297,-22.94234 -6.67531,1.94697 -2.78083,34.14446 -9.69309,33.38869 -6.91225,-0.75577 3.84783,-31.35097 -2.24904,-34.69441 -6.09687,-3.34345 -26.11013,22.17743 -30.46342,16.75532 -4.35329,-5.42211 24.88931,-19.44766 22.94234,-26.12297 -1.94696,-6.67531 -34.14446,-2.78083 -33.38869,-9.69308 0.75577,-6.91226 31.35097,3.84782 34.69441,-2.24905 3.34345,-6.09687 -22.17743,-26.11012 -16.75532,-30.46342 5.42211,-4.35329 19.44766,24.88931 26.12297,22.94234 6.67531,-1.94696 2.78083,-34.14445 9.69309,-33.38869 6.91225,0.75577 -3.84783,31.35097 2.24904,34.69442 6.09687,3.34344 26.11013,-22.17744 30.46342,-16.75533 4.35329,5.42211 -24.88931,19.44767 -22.94234,26.12297 1.94696,6.67531 34.14446,2.78084 33.38869,9.69309 -0.75577,6.91225 -31.35097,-3.84782 -34.69441,2.24904 z"
           inkscape:randomized="0"
           inkscape:rounded="0.2"
           inkscape:flatsided="false"
           sodipodi:arg2="0.8943031"
           sodipodi:arg1="0.50160402"
           sodipodi:r2="48.745762"
           sodipodi:r1="15.696135"
           sodipodi:cy="-334.12961"
           sodipodi:cx="-273.20871"
           sodipodi:sides="8"
           id="path4936-55-5"
           style="fill:#000000;fill-opacity:1;stroke:none;stroke-width:1;stroke-miterlimit:4;stroke-dasharray:none;stroke-opacity:1"
           sodipodi:type="star" />
        <circle
           transform="matrix(0.44022458,0,0,0.44522337,84.171584,-178.45541)"
           id="path4972-4-6-1-2"
           style="fill:#000000;fill-opacity:1;stroke:none;stroke-width:10;stroke-miterlimit:4;stroke-dasharray:none;stroke-opacity:1"
           cx="-378.02197"
           cy="-381.14102"
           r="26.373627" />
      </g>
    </g>
    <g
       style="fill:#ffffff;stroke:#000000;stroke-width:2;stroke-miterlimit:4;stroke-dasharray:none;stroke-opacity:1"
       transform="translate(-0.4129137,639.60983)"
       id="g5677">
      <path
         style="fill:#ffffff;fill-opacity:1;stroke:#000000;stroke-width:2;stroke-miterlimit:4;stroke-dasharray:none;stroke-opacity:1"
         d="m 293.25701,133.10352 c -2.14902,0.133 -3.63022,1.72089 -2.8125,5.53125 1.72836,8.0536 1.22916,11.55545 0.59375,13.125 -1.05878,-1.65711 -2.3877,-3.99417 -4.09375,-7.5625 -5.37919,-11.25099 -21.81125,5.4395 -9.40625,6.71875 8.15252,0.84071 11.31607,2.38006 12.625,3.46875 -1.90161,0.4925 -4.54122,1.04588 -8.4375,1.5625 -2.12482,0.28172 -3.53363,1.16066 -4.4375,2.3125 2.80826,2.39207 5.57948,5.23181 7.90625,8.71875 3.34515,-7.55314 5.81533,-10.07946 7.25,-10.96875 -0.11809,1.96216 -0.40944,4.65046 -1.125,8.53125 -2.26131,12.26405 20.81518,8.42014 11.53125,0.0937 -6.14243,-5.50891 -7.75131,-8.64033 -8.15625,-10.28125 1.82947,0.71871 4.25047,1.83977 7.71875,3.71875 4.08266,2.21182 7.15412,0.39648 8.8125,-2.4375 -2.13717,-3.08992 -4.0438,-5.6963 -5.1875,-7.09375 -0.24245,-0.39742 -0.39902,-0.66528 -0.625,-1.03125 -6.62505,3.75176 -9.95372,4.32763 -11.59375,4.21875 1.24896,-1.51578 3.06029,-3.51304 5.90625,-6.21875 1.2051,-1.14571 1.85883,-2.3145 2.125,-3.46875 -2.06826,-2.9722 -3.96206,-5.18511 -6.875,-8.75 -0.60139,-0.1411 -1.17606,-0.22109 -1.71875,-0.1875 z m -0.75,20.3125 c 0.002,0.0522 -10e-4,0.13272 0,0.1875 0.0563,0.017 0.12861,0.0442 0.1875,0.0625 -0.0519,0.019 -0.13272,0.043 -0.1875,0.0625 9.8e-4,0.0471 -6.7e-4,0.10737 0,0.15625 -0.0266,-0.0341 -0.0663,-0.0894 -0.0937,-0.125 -0.0562,0.0197 -0.12831,0.0424 -0.1875,0.0625 0.0282,-0.0419 0.0638,-0.11264 0.0937,-0.15625 -0.0326,-0.0429 -0.0601,-0.11118 -0.0937,-0.15625 0.0446,0.0128 0.10982,0.0488 0.15625,0.0625 0.0341,-0.0492 0.0887,-0.10498 0.125,-0.15625 z m -0.125,0.15625 c -0.0192,0.0277 -0.044,0.0667 -0.0625,0.0937 0.0236,0.031 0.0707,0.0638 0.0937,0.0937 0.0281,-0.01 0.0664,-0.0215 0.0937,-0.0312 -7.8e-4,-0.0377 9.7e-4,-0.0885 0,-0.125 -0.0367,-0.0111 -0.0894,-0.0208 -0.125,-0.0312 z"
         id="path7952-8"
         inkscape:connector-curvature="0" />
      <circle
         style="fill:#ffffff;fill-opacity:1;stroke:#000000;stroke-width:6.93554688;stroke-miterlimit:4;stroke-dasharray:none;stroke-opacity:1"
         id="path4974-5-91-2-4-7"
         transform="matrix(0.28836948,0,0,0.28836948,373.44493,205.79066)"
         cx="-282.00589"
         cy="-178.65309"
         r="17.109144" />
    </g>
    <path
       inkscape:connector-curvature="0"
       id="path7952-7-9"
       d="m 110.07808,804.87613 c -0.96564,0.0422 -2.00125,0.46418 -3.03125,1.40625 -0.28785,0.26328 -0.51312,0.44888 -0.78125,0.6875 -0.80536,1.68048 -1.60153,3.32984 -2.3125,4.96875 1.52189,-0.0284 3.84402,0.24738 7.53125,1.3125 7.24149,2.09184 3.80822,-8.60278 -1.40625,-8.375 z m -6.59375,8.25 c -0.6225,1.46925 -1.21839,2.9286 -1.78125,4.375 0.1715,1.197 0.31622,2.59149 0.375,4.375 0.29427,8.92857 13.02119,-2.00005 5.25,-6.40625 -1.62291,-0.92017 -2.8376,-1.6706 -3.84375,-2.34375 z"
       style="fill:#ffffff;fill-opacity:1;stroke:#000000;stroke-width:1.5;stroke-miterlimit:4;stroke-dasharray:none;stroke-opacity:1" />
  </g>
</svg>
