<?xml version="1.0" encoding="UTF-8" standalone="no"?>
<svg
   xmlns:dc="http://purl.org/dc/elements/1.1/"
   xmlns:cc="http://creativecommons.org/ns#"
   xmlns:rdf="http://www.w3.org/1999/02/22-rdf-syntax-ns#"
   xmlns:svg="http://www.w3.org/2000/svg"
   xmlns="http://www.w3.org/2000/svg"
   xmlns:sodipodi="http://sodipodi.sourceforge.net/DTD/sodipodi-0.dtd"
   xmlns:inkscape="http://www.inkscape.org/namespaces/inkscape"
   height="1000"
   width="1000"
   version="1.1"
   viewBox="0 0 1000 1000"
   id="svg4655"
   inkscape:version="0.92.3 (2405546, 2018-03-11)"
   sodipodi:docname="CasualTux-ColoringBookFat.svg">
  <metadata
     id="metadata6323">
    <rdf:RDF>
      <cc:Work
         rdf:about="">
        <dc:format>image/svg+xml</dc:format>
        <dc:type
           rdf:resource="http://purl.org/dc/dcmitype/StillImage" />
        <dc:title>Casual Tux Coloring Book Fat</dc:title>
        <dc:date>May 04, 2019</dc:date>
        <dc:creator>
          <cc:Agent>
            <dc:title>Troy Dawson</dc:title>
          </cc:Agent>
        </dc:creator>
        <cc:license
           rdf:resource="http://creativecommons.org/licenses/by/3.0/" />
        <dc:subject>
          <rdf:Bag>
            <rdf:li>Casual Tux</rdf:li>
          </rdf:Bag>
        </dc:subject>
        <dc:rights>
          <cc:Agent>
            <dc:title>The copyright holder of this file allows anyone to use it for any purpose, provided that the copyright holder is properly attributed. Redistribution, derivative work, commercial use, and all other use is permitted.</dc:title>
          </cc:Agent>
        </dc:rights>
        <dc:contributor>
          <cc:Agent>
            <dc:title>Troy Dawson, Larry Ewing, Simon Budig, Anja Gerwinski</dc:title>
          </cc:Agent>
        </dc:contributor>
        <dc:description>Original Tux svg came from here.
https://commons.wikimedia.org/wiki/File:Tux.svg

All other work done by Troy Dawson.
Casual Tux Coloring Book Fat is released under the same license as the original Tux.
&quot;The copyright holder of this file allows anyone to use it for any purpose, provided that the copyright holder is properly attributed. Redistribution, derivative work, commercial use, and all other use is permitted.&quot;</dc:description>
      </cc:Work>
      <cc:License
         rdf:about="http://creativecommons.org/licenses/by/3.0/">
        <cc:permits
           rdf:resource="http://creativecommons.org/ns#Reproduction" />
        <cc:permits
           rdf:resource="http://creativecommons.org/ns#Distribution" />
        <cc:requires
           rdf:resource="http://creativecommons.org/ns#Notice" />
        <cc:requires
           rdf:resource="http://creativecommons.org/ns#Attribution" />
        <cc:permits
           rdf:resource="http://creativecommons.org/ns#DerivativeWorks" />
      </cc:License>
    </rdf:RDF>
  </metadata>
  <defs
     id="defs6321" />
  <sodipodi:namedview
     pagecolor="#ffffff"
     bordercolor="#666666"
     borderopacity="1"
     objecttolerance="10"
     gridtolerance="10"
     guidetolerance="10"
     inkscape:pageopacity="0"
     inkscape:pageshadow="2"
     inkscape:window-width="1297"
     inkscape:window-height="952"
     id="namedview6319"
     showgrid="false"
     inkscape:zoom="0.68"
     inkscape:cx="492.60935"
     inkscape:cy="462.1595"
     inkscape:window-x="1973"
     inkscape:window-y="69"
     inkscape:window-maximized="0"
     inkscape:current-layer="svg4655"
     inkscape:object-paths="false"
     inkscape:snap-intersection-paths="false" />
  <title
     id="title4657">Casual Tux Coloring Book Fat</title>
  <desc
     id="desc4659">For more information see: http://commons.wikimedia.org/wiki/Image:Tux.svg</desc>
  <radialGradient
     id="ag"
     gradientUnits="userSpaceOnUse"
     cy="-551.03998"
     cx="274.82199"
     gradientTransform="matrix(0.5671,0,0,-0.2835,81.263,201.645)"
     r="165.384">
    <stop
       stop-opacity=".502"
       offset="0"
       id="stop4662" />
    <stop
       stop-opacity="0"
       offset="1"
       id="stop4664" />
  </radialGradient>
  <radialGradient
     id="ak"
     gradientUnits="userSpaceOnUse"
     cy="-551.04199"
     cx="268.79401"
     gradientTransform="matrix(0.5823,0,0,-0.2835,-61.6052,201.14)"
     r="165.383">
    <stop
       stop-opacity=".502"
       offset="0"
       id="stop4669" />
    <stop
       stop-opacity="0"
       offset="1"
       id="stop4671" />
  </radialGradient>
  <g
     id="g1366">
    <path
       sodipodi:nodetypes="ccccc"
       inkscape:connector-curvature="0"
       id="path9588-3-1"
       d="m 337.46387,370.2739 1.6958,27.81598 40.80573,-12.04218 -5.9441,-18.66798 z"
       style="fill:#ffffff;stroke:#000000;stroke-width:10.64868927;stroke-miterlimit:4;stroke-dasharray:none;stroke-opacity:1" />
    <path
       sodipodi:nodetypes="cccc"
       inkscape:connector-curvature="0"
       id="path9588-42"
       d="m 225.01082,581.46908 c 44.96456,6.63754 91.67365,15.4862 88.91612,12.57278 l -67.29673,-49.61105 c -8.30414,11.24845 -14.60677,24.49838 -21.61939,37.03827 z"
       style="fill:#ffffff;stroke:#000000;stroke-width:10.64868927;stroke-miterlimit:4;stroke-dasharray:none;stroke-opacity:1" />
    <path
       sodipodi:nodetypes="ccccc"
       inkscape:connector-curvature="0"
       id="path9588-3"
       d="m 705.42992,332.5985 -1.6958,27.81597 -40.80572,-12.04218 5.9441,-18.66797 z"
       style="fill:#ffffff;stroke:#000000;stroke-width:10.64868927;stroke-miterlimit:4;stroke-dasharray:none;stroke-opacity:1" />
    <path
       sodipodi:nodetypes="cccc"
       inkscape:connector-curvature="0"
       id="path9588"
       d="m 831.86977,548.6666 c -44.9646,6.63754 -91.67369,15.4862 -88.91616,12.57277 l 67.29676,-49.61104 c 8.30412,11.24845 14.60676,24.49837 21.6194,37.03827 z"
       style="fill:#ffffff;stroke:#000000;stroke-width:10.64868927;stroke-miterlimit:4;stroke-dasharray:none;stroke-opacity:1" />
    <path
       style="stroke-width:2.66217232"
       d="m 836.55868,666.50887 c -12.65065,52.13598 -76.86224,161.00818 -110.98064,208.92728 -34.11573,48.11077 -29.89885,91.42964 -92.96305,74.56212 -62.86986,-16.86753 -80.50409,-13.8007 -145.47973,-9.96718 -64.5976,3.83087 -50.60523,-1.91942 -91.04628,16.2925 -40.25205,18.20925 -175.3839,-220.81121 -186.30946,-265.27748 -10.73121,-44.47158 -15.90914,-39.10464 12.07562,-87.21542 27.98741,-48.10811 32.00995,-95.64652 69.00349,-153.91615 36.99355,-58.4613 79.73738,-88.17114 76.67056,-132.83174 C 355.45624,151.28271 345.86976,68.47851 419.47616,30.14323 489.62972,-6.2752858 548.2827,15.384147 571.47554,27.843113 c 9.96717,5.366939 30.28487,15.717465 45.42731,33.926723 15.14243,17.825905 28.75146,44.852274 36.41851,78.970674 15.71747,68.42848 -6.51699,45.81066 11.30891,124.20631 17.63423,78.20131 53.47772,116.53659 97.17994,178.44806 43.69689,61.91414 89.31587,164.07766 74.74847,223.11399 z"
       id="path4677"
       inkscape:connector-curvature="0" />
    <path
       style="fill:#ffffff;stroke-width:2.66217232"
       inkscape:connector-curvature="0"
       id="path4681"
       d="m 420.56286,260.3772 c 11.49792,-4.60023 9.56252,-5.21253 17.22958,-21.88838 6.13364,-12.84232 11.52188,-18.36366 11.3302,-37.91466 0,-19.16764 -5.94197,-25.68463 -14.95076,-38.1436 -8.62544,-11.88394 -22.42614,-12.45897 -31.05158,-10.92555 -4.98358,0.7667 -11.49792,7.09202 -15.90914,16.48417 -2.87514,6.32532 -5.17526,14.37573 -5.3696,22.80949 -0.57503,22.61781 1.3444,31.24325 6.517,46.57736 6.13631,18.02025 21.08707,27.41239 32.2043,23.00117 z" />
    <path
       style="stroke-width:2.66217232"
       d="m 409.82845,182.36757 c 5.75029,0 13.03399,3.83353 16.4815,9.00879 3.64186,5.17526 6.32533,12.45896 6.32533,20.70105 0,12.26729 -1.34174,25.87631 -8.62278,30.09319 -2.30012,1.34174 -7.2837,2.4918 -10.15885,2.4918 -6.517,0 -7.09203,-4.21688 -13.22567,-10.54221 -2.10844,-2.30011 -8.43376,-13.41734 -8.43376,-22.61781 0,-5.75029 -1.34174,-13.99238 3.64185,-21.27608 3.45017,-5.36694 7.85873,-7.85873 13.99238,-7.85873 z"
       id="path4723"
       inkscape:connector-curvature="0" />
    <path
       style="fill:#ffffff;stroke:none;stroke-width:2.66217232"
       inkscape:connector-curvature="0"
       id="path4727"
       d="m 408.29557,192.64888 c 2.24687,-3.47414 11.23969,-1.8369 14.50884,5.31369 3.27181,7.15326 2.65684,22.68703 0.40731,23.50432 -5.926,1.83956 -4.08644,-6.74594 -9.19514,-14.5115 -5.10871,-7.35292 -7.97055,-10.82705 -5.72101,-14.30651 z" />
    <path
       style="fill:#ffffff;stroke:none;stroke-width:2.66217232"
       inkscape:connector-curvature="0"
       id="path4771"
       d="m 539.40222,262.86899 c 28.75146,-3.06682 38.91031,-14.18405 44.08558,-33.54337 4.60289,-17.25087 4.79457,-36.41851 -8.04775,-58.84465 -12.07561,-21.4651 -18.97596,-24.91793 -36.42118,-26.25967 -26.83203,-2.30011 -39.48534,16.48417 -45.42464,29.90152 -6.32532,14.56741 -4.98359,12.45897 -4.6029,30.8599 0.38602,19.35932 11.30092,24.75554 18.01226,36.83115 6.70601,11.8866 29.14014,21.24946 32.39863,21.05512 z" />
    <path
       style="stroke-width:2.66217232"
       d="m 537.10157,181.60086 c 14.37573,0 22.8095,12.84232 25.68464,29.32649 1.15006,7.47538 -0.57503,16.10082 -5.17526,22.04279 -5.17526,6.90035 -14.37573,11.11723 -21.85111,11.11723 -7.09203,0 -15.14244,1.15006 -19.35665,-4.60024 -4.21688,-5.94196 -5.17527,-19.16764 -5.17527,-28.55978 0,-10.5422 3.06683,-18.01758 8.43376,-23.95955 4.02255,-4.41122 11.30625,-5.36694 17.43989,-5.36694 z"
       id="path4813"
       inkscape:connector-curvature="0" />
    <path
       style="fill:#ffffff;stroke:none;stroke-width:2.66217232"
       inkscape:connector-curvature="0"
       id="path4817"
       d="m 538.02056,187.51621 c 2.60893,-1.7384 6.95359,0 11.95049,5.64913 5.42817,6.08306 7.82146,10.86166 1.3018,14.3358 -4.9969,2.60892 -6.517,-5.21254 -9.5572,-8.47104 -4.7786,-5.21519 -8.90763,-8.03976 -3.69509,-11.51389 z" />
    <path
       style="fill:#ffffff;stroke-width:2.66217232"
       inkscape:connector-curvature="0"
       id="path4905"
       d="m 451.23108,351.42349 c -24.91793,0.95838 -64.40327,-68.81183 -65.36165,-39.86869 -0.76671,24.53458 0.57503,24.15122 0.57503,47.9191 0,15.90914 -7.28371,17.0592 -23.00117,41.01875 -8.05041,12.65064 -14.37573,26.25966 -19.35932,40.06036 -3.06682,8.24209 -5.94196,16.86753 -8.24208,25.30129 -0.95838,4.21688 -2.68347,8.62544 -3.64185,12.84232 -7.85874,28.94313 -35.84349,64.59494 -42.36049,93.53808 -6.51699,28.75146 -14.18405,47.15239 -13.22567,85.68201 0.95838,38.52696 1.34174,27.40706 13.034,36.99355 11.50058,9.58648 23.38452,18.58995 41.59378,34.69342 19.16764,16.67585 59.03899,45.81066 64.40327,54.81945 5.75029,9.20047 5.55861,29.90152 2.10844,36.6102 -3.45018,6.51699 -33.54337,10.15885 -33.3517,10.15885 -0.18901,0 26.25967,36.41851 31.43759,41.59111 4.98359,4.98625 26.45135,28.9458 113.85578,12.65064 49.26084,-9.1978 87.40444,-36.7992 115.00584,-63.44488 35.65181,-34.69077 17.63423,-44.65794 22.23447,-62.10049 6.71133,-25.11227 28.56244,-34.50176 33.54603,-62.86986 0.57503,-4.02521 1.91676,-7.09203 5.55861,-13.034 5.55862,-8.43376 4.21688,-25.10961 4.21688,-40.44106 0,-39.87135 -4.60289,-80.50408 -13.80336,-110.4056 -8.43376,-27.98476 -21.85111,-47.53575 -33.34903,-72.83703 -23.00383,-50.4109 -21.85111,-73.02871 -42.36048,-105.23035 -23.38452,-37.18522 -11.88394,-61.91147 -42.93552,-60.37806 -38.72395,2.10312 -69.96721,55.19748 -106.5774,56.73089 z" />
    <path
       d="m 464.45622,219.93348 c 13.99238,-1.72509 33.16002,1.72509 41.97979,8.24208 8.24209,6.13365 13.99238,9.39215 21.4651,11.88394 25.11227,8.24209 58.07795,12.07561 56.54454,34.69343 -1.72509,27.02371 -9.58382,39.10198 -32.00996,46.19135 -18.01758,5.55861 -50.21656,36.80187 -75.13715,36.80187 -11.11723,0 -26.64302,0.57503 -35.65181,-2.68347 -8.62544,-3.06682 -20.70105,-17.63423 -34.88511,-29.32649 -14.18405,-11.50058 -27.40972,-23.76787 -27.79041,-39.86869 -0.57769,-17.05654 10.5422,-22.61782 26.257,-36.22418 8.24475,-7.2837 23.19285,-19.35932 33.54603,-24.72625 9.58116,-4.78925 15.71481,-3.83087 25.68198,-4.98359 z"
       id="path4947"
       inkscape:connector-curvature="0"
       style="fill:#ffffff;stroke:#000000;stroke-width:10.64868927;stroke-miterlimit:4;stroke-dasharray:none;stroke-opacity:1" />
    <path
       style="fill:#000000;stroke:none;stroke-width:2.66217232"
       inkscape:connector-curvature="0"
       id="path4993"
       d="m 472.50716,232.58412 c 2.68347,5.55862 9.58382,6.32532 14.18405,8.81712 4.4059,2.49179 6.90035,3.06682 8.62278,2.10844 3.83353,-2.10844 0.95838,-9.00879 -2.87248,-11.50059 -3.64186,-2.48913 -21.46776,-3.06416 -19.93435,0.57503 z" />
    <path
       style="fill:#000000;stroke:none;stroke-width:2.66217232"
       inkscape:connector-curvature="0"
       id="path5039"
       d="m 432.44679,239.69212 c -0.84657,2.11377 5.0741,6.13365 8.0371,3.38362 3.17597,-2.75002 6.98288,-5.28707 8.25806,-6.1363 5.71036,-3.80957 3.59659,-6.55693 -5.926,-4.86646 -9.52525,1.69581 -9.52525,5.50271 -10.36916,7.61914 z" />
    <path
       style="fill:#ffffff;stroke:#000000;stroke-width:10.64868927;stroke-miterlimit:4;stroke-dasharray:none;stroke-opacity:1"
       inkscape:connector-curvature="0"
       id="path5609"
       d="m 165.05823,738.4208 c -17.24822,12.45897 -60.9531,11.30891 -72.07033,25.87365 -10.925555,14.57007 0.386015,35.65447 0.191676,74.7538 0,16.6785 -2.875146,29.32915 -4.79191,39.48533 -2.683469,12.84232 -4.408557,21.85378 0.958382,31.05158 9.775497,16.29516 25.490302,20.32036 115.389192,39.10199 48.11077,9.96717 93.53807,35.84348 124.01462,38.33261 30.47655,2.30278 36.99355,-7.85607 55.58616,-24.3429 18.40093,-16.48417 24.3429,-11.30891 23.76787,-47.53575 -0.57503,-36.0325 -23.76787,-46.76637 -50.02754,-88.36015 -26.25967,-41.59378 -30.47655,-49.26084 -47.9191,-76.86224 -17.44255,-27.21805 -51.9443,-76.67056 -71.68697,-77.24825 -15.71746,-0.38335 -24.53457,8.05041 -34.31007,18.02024 -9.7755,9.96984 -21.85111,35.26846 -39.10198,47.73009 z" />
    <path
       style="fill:#ffffff;stroke-width:2.66217232"
       inkscape:connector-curvature="0"
       id="path6043"
       d="m 751.06089,670.20264 c 0.59366,2.83521 10.59278,1.90345 19.51638,4.66412 9.65836,3.0615 12.50955,3.92138 20.42152,10.33722 7.02281,5.95794 1.6612,7.43012 5.64913,8.27403 2.65685,0.4925 4.80256,-0.87586 4.19825,-5.18059 -0.74541,-5.34564 -5.92866,-9.13657 -17.39463,-13.28956 -8.73725,-3.18396 -14.64461,-5.80886 -22.2744,-6.72199 -5.85944,-0.62561 -10.5635,-0.17038 -10.11625,1.91677 z" />
    <path
       style="fill:#ffffff;stroke-width:2.66217232"
       inkscape:connector-curvature="0"
       id="path5989"
       d="m 705.14907,679.66932 c 2.06052,1.7171 3.57795,-1.75969 7.20383,-3.62588 3.62588,-1.86352 9.4374,-4.54166 15.51514,-4.5603 6.07774,-0.024 7.5446,0.2396 7.33162,-2.50776 -0.15174,-2.69412 -2.67548,-2.05786 -9.93788,-1.63192 -7.25975,0.3168 -12.78109,3.53537 -15.70416,6.29604 -2.86982,2.69678 -6.01651,4.81853 -4.40855,6.02982 z" />
    <path
       sodipodi:nodetypes="ccccccccccc"
       inkscape:connector-curvature="0"
       id="path7950"
       d="m 482.91902,474.57161 -4.59863,375.93015 c 133.78453,-74.90405 240.38446,-46.17135 284.86919,-49.63559 l -86.34066,-35.94321 13.56902,-72.0318 c 8.01542,-17.86629 20.04482,-25.50212 36.04032,-28.30786 16.86619,-29.96366 23.67097,-56.21334 15.16222,-102.06321 -6.52075,-50.93798 -34.70096,-68.85996 -68.82011,-90.67617 -33.35537,-68.38529 26.82629,-78.60516 50.60411,-81.07992 -6.65945,-12.2249 -6.67726,-4.68246 -18.32506,-54.62697 z"
       style="fill:#ffffff;stroke:#000000;stroke-width:10.64868927;stroke-miterlimit:4;stroke-dasharray:none" />
    <g
       style="fill:#000000;stroke:none"
       transform="matrix(0.54363247,0,0,0.54363247,718.44249,704.47174)"
       id="g4984-8-18">
      <g
         style="fill:#000000;stroke:none"
         id="g4977-2-9"
         transform="translate(35.202493,-17.445483)">
        <path
           inkscape:transform-center-y="-0.069157745"
           inkscape:transform-center-x="0.59047885"
           transform="rotate(-20,-217.47783,-882.64919)"
           d="m -259.44614,-326.5824 c -3.34345,6.09687 22.17743,26.11013 16.75532,30.46342 -5.42211,4.35329 -19.44766,-24.8893 -26.12297,-22.94234 -6.67531,1.94697 -2.78083,34.14446 -9.69309,33.38869 -6.91225,-0.75577 3.84783,-31.35097 -2.24904,-34.69441 -6.09687,-3.34345 -26.11013,22.17743 -30.46342,16.75532 -4.35329,-5.42211 24.88931,-19.44766 22.94234,-26.12297 -1.94696,-6.67531 -34.14446,-2.78083 -33.38869,-9.69308 0.75577,-6.91226 31.35097,3.84782 34.69441,-2.24905 3.34345,-6.09687 -22.17743,-26.11012 -16.75532,-30.46342 5.42211,-4.35329 19.44766,24.88931 26.12297,22.94234 6.67531,-1.94696 2.78083,-34.14445 9.69309,-33.38869 6.91225,0.75577 -3.84783,31.35097 2.24904,34.69442 6.09687,3.34344 26.11013,-22.17744 30.46342,-16.75533 4.35329,5.42211 -24.88931,19.44767 -22.94234,26.12297 1.94696,6.67531 34.14446,2.78084 33.38869,9.69309 -0.75577,6.91225 -31.35097,-3.84782 -34.69441,2.24904 z"
           inkscape:randomized="0"
           inkscape:rounded="0.2"
           inkscape:flatsided="false"
           sodipodi:arg2="0.8943031"
           sodipodi:arg1="0.50160402"
           sodipodi:r2="48.745762"
           sodipodi:r1="15.696135"
           sodipodi:cy="-334.12961"
           sodipodi:cx="-273.20871"
           sodipodi:sides="8"
           id="path4936-5-4-27"
           style="fill:#000000;fill-opacity:1;stroke:none;stroke-width:4;stroke-miterlimit:4;stroke-dasharray:none;stroke-opacity:1"
           sodipodi:type="star" />
        <path
           inkscape:transform-center-y="-0.26694487"
           inkscape:transform-center-x="0.53122163"
           transform="translate(190.96573,-14.018692)"
           d="m -259.44614,-326.5824 c -3.34345,6.09687 22.17743,26.11013 16.75532,30.46342 -5.42211,4.35329 -19.44766,-24.8893 -26.12297,-22.94234 -6.67531,1.94697 -2.78083,34.14446 -9.69309,33.38869 -6.91225,-0.75577 3.84783,-31.35097 -2.24904,-34.69441 -6.09687,-3.34345 -26.11013,22.17743 -30.46342,16.75532 -4.35329,-5.42211 24.88931,-19.44766 22.94234,-26.12297 -1.94696,-6.67531 -34.14446,-2.78083 -33.38869,-9.69308 0.75577,-6.91226 31.35097,3.84782 34.69441,-2.24905 3.34345,-6.09687 -22.17743,-26.11012 -16.75532,-30.46342 5.42211,-4.35329 19.44766,24.88931 26.12297,22.94234 6.67531,-1.94696 2.78083,-34.14445 9.69309,-33.38869 6.91225,0.75577 -3.84783,31.35097 2.24904,34.69442 6.09687,3.34344 26.11013,-22.17744 30.46342,-16.75533 4.35329,5.42211 -24.88931,19.44767 -22.94234,26.12297 1.94696,6.67531 34.14446,2.78084 33.38869,9.69309 -0.75577,6.91225 -31.35097,-3.84782 -34.69441,2.24904 z"
           inkscape:randomized="0"
           inkscape:rounded="0.2"
           inkscape:flatsided="false"
           sodipodi:arg2="0.8943031"
           sodipodi:arg1="0.50160402"
           sodipodi:r2="48.745762"
           sodipodi:r1="15.696135"
           sodipodi:cy="-334.12961"
           sodipodi:cx="-273.20871"
           sodipodi:sides="8"
           id="path4936-55-9"
           style="fill:#000000;fill-opacity:1;stroke:none;stroke-width:4;stroke-miterlimit:4;stroke-dasharray:none;stroke-opacity:1"
           sodipodi:type="star" />
        <circle
           transform="matrix(0.44022458,0,0,0.44522337,84.171584,-178.45541)"
           id="path4972-4-6-1-5"
           style="fill:#000000;fill-opacity:1;stroke:none;stroke-width:10;stroke-miterlimit:4;stroke-dasharray:none;stroke-opacity:1"
           cx="-378.02197"
           cy="-381.14102"
           r="26.373627" />
      </g>
    </g>
    <g
       transform="matrix(2.6621722,0,0,2.6621722,-32.886904,-33.76248)"
       style="fill:#000000;fill-opacity:1;stroke:none"
       id="g9455">
      <g
         id="g6135"
         transform="translate(21.860743,16.439599)"
         style="fill:#000000;fill-opacity:1;stroke:none">
        <path
           style="fill:#000000;fill-opacity:1;stroke:none"
           inkscape:connector-curvature="0"
           id="path6137"
           d="m 137.79,109.277 c 1.978,1.366 2.031,1.607 4.948,3.514 4.64,3.768 12.885,4.616 16.922,4.75 9.233,1.467 25.738,-7.161 32.273,-11.111 3.291,-2.463 9.38,-7.551 11.659,-7.637 1.405,1.485 -0.66,1.792 -3.587,3.775 -3.906,2.779 -7.25,5.156 -13.172,8.515 -6.338,3.316 -16.078,8.794 -28.548,8.054 -6.542,-0.959 -6.566,-1.024 -10.606,-3.086 -2.4,-1.732 -7.901,-4.608 -9.889,-6.774 z" />
        <linearGradient
           y2="259.30499"
           y1="259.30499"
           gradientTransform="matrix(1,0,0,-1,8.3999,368.3)"
           x2="195.59801"
           gradientUnits="userSpaceOnUse"
           x1="129.342"
           id="al">
          <stop
             id="stop6140"
             offset="0"
             stop-color="#FAC700" />
          <stop
             id="stop6142"
             offset=".415"
             stop-color="#F7C400" />
          <stop
             id="stop6144"
             offset="1"
             stop-color="#F7C400" />
        </linearGradient>
        <path
           inkscape:connector-curvature="0"
           style="fill:#000000;fill-opacity:1;stroke:none"
           id="path6146"
           d="m 137.742,109.259 c 1.926,1.274 2.165,1.643 5.083,3.554 4.616,3.734 12.716,4.616 16.796,4.763 9.365,1.452 26.05,-7.294 32.356,-11.159 3.357,-2.506 9.344,-7.498 11.595,-7.604 1.365,1.472 -0.728,1.768 -3.688,3.814 -3.889,2.753 -7.119,5.065 -12.972,8.383 -6.29,3.291 -16.078,8.795 -28.536,8.104 -6.561,-0.945 -6.851,-1.07 -10.758,-3.079 -2.468,-1.755 -7.876,-4.587 -9.876,-6.776 z" />
        <linearGradient
           y2="259.311"
           y1="259.311"
           gradientTransform="matrix(1,0,0,-1,8.3999,368.3)"
           x2="195.554"
           gradientUnits="userSpaceOnUse"
           x1="129.293"
           id="am">
          <stop
             id="stop6149"
             offset="0"
             stop-color="#F6C200" />
          <stop
             id="stop6151"
             offset=".415"
             stop-color="#EFBC00" />
          <stop
             id="stop6153"
             offset="1"
             stop-color="#EFBC00" />
        </linearGradient>
        <path
           inkscape:connector-curvature="0"
           style="fill:#000000;fill-opacity:1;stroke:none"
           id="path6155"
           d="m 137.693,109.24 c 1.876,1.183 2.3,1.68 5.218,3.595 4.593,3.7 12.548,4.616 16.67,4.776 9.498,1.437 26.364,-7.428 32.44,-11.207 3.425,-2.55 9.308,-7.444 11.528,-7.57 1.326,1.457 -0.795,1.743 -3.788,3.854 -3.87,2.725 -6.99,4.973 -12.771,8.25 -6.243,3.266 -16.078,8.796 -28.525,8.154 -6.579,-0.931 -7.134,-1.117 -10.908,-3.073 -2.536,-1.779 -7.852,-4.567 -9.864,-6.779 z" />
        <linearGradient
           y2="259.31699"
           y1="259.31699"
           gradientTransform="matrix(1,0,0,-1,8.3999,368.3)"
           x2="195.50999"
           gradientUnits="userSpaceOnUse"
           x1="129.245"
           id="an">
          <stop
             id="stop6158"
             offset="0"
             stop-color="#F1BD00" />
          <stop
             id="stop6160"
             offset=".415"
             stop-color="#E8B500" />
          <stop
             id="stop6162"
             offset="1"
             stop-color="#E8B500" />
        </linearGradient>
        <path
           inkscape:connector-curvature="0"
           style="fill:#000000;fill-opacity:1;stroke:none"
           id="path6164"
           d="m 137.645,109.222 c 1.825,1.091 2.434,1.715 5.352,3.635 4.569,3.665 12.38,4.615 16.544,4.789 9.631,1.422 26.677,-7.562 32.524,-11.255 3.491,-2.594 9.271,-7.392 11.463,-7.538 1.287,1.442 -0.861,1.718 -3.889,3.893 -3.853,2.699 -6.86,4.882 -12.57,8.119 -6.195,3.241 -16.078,8.797 -28.513,8.203 -6.6,-0.916 -7.418,-1.163 -11.061,-3.066 -2.603,-1.801 -7.826,-4.546 -9.85,-6.78 z" />
        <linearGradient
           y2="259.32199"
           y1="259.32199"
           gradientTransform="matrix(1,0,0,-1,8.3999,368.3)"
           x2="195.465"
           gradientUnits="userSpaceOnUse"
           x1="129.196"
           id="ao">
          <stop
             id="stop6167"
             offset="0"
             stop-color="#EDB800" />
          <stop
             id="stop6169"
             offset=".415"
             stop-color="#E0AD00" />
          <stop
             id="stop6171"
             offset="1"
             stop-color="#E0AD00" />
        </linearGradient>
        <path
           inkscape:connector-curvature="0"
           style="fill:#000000;fill-opacity:1;stroke:none"
           id="path6173"
           d="m 137.596,109.203 c 1.774,1 2.568,1.752 5.487,3.676 4.545,3.631 12.211,4.615 16.418,4.801 9.764,1.408 26.989,-7.695 32.608,-11.302 3.557,-2.637 9.236,-7.338 11.396,-7.505 1.247,1.427 -0.928,1.693 -3.99,3.932 -3.833,2.672 -6.729,4.791 -12.369,7.986 -6.148,3.217 -16.078,8.799 -28.501,8.254 -6.619,-0.902 -7.702,-1.21 -11.21,-3.059 -2.672,-1.825 -7.803,-4.525 -9.839,-6.783 z" />
        <linearGradient
           y2="259.327"
           y1="259.327"
           gradientTransform="matrix(1,0,0,-1,8.3999,368.3)"
           x2="195.422"
           gradientUnits="userSpaceOnUse"
           x1="129.14799"
           id="ap">
          <stop
             id="stop6176"
             offset="0"
             stop-color="#E9B300" />
          <stop
             id="stop6178"
             offset=".415"
             stop-color="#D8A500" />
          <stop
             id="stop6180"
             offset="1"
             stop-color="#D8A500" />
        </linearGradient>
        <path
           inkscape:connector-curvature="0"
           style="fill:#000000;fill-opacity:1;stroke:none"
           id="path6182"
           d="m 137.548,109.184 c 1.724,0.909 2.703,1.788 5.622,3.717 4.522,3.597 12.043,4.615 16.292,4.814 9.896,1.393 27.303,-7.829 32.692,-11.35 3.624,-2.681 9.2,-7.286 11.331,-7.472 1.208,1.412 -0.995,1.668 -4.092,3.972 -3.814,2.644 -6.6,4.698 -12.168,7.853 -6.101,3.192 -16.077,8.8 -28.489,8.303 -6.638,-0.887 -7.986,-1.256 -11.361,-3.052 -2.741,-1.848 -7.779,-4.504 -9.827,-6.785 z" />
        <linearGradient
           y2="259.332"
           y1="259.332"
           gradientTransform="matrix(1,0,0,-1,8.3999,368.3)"
           x2="195.379"
           gradientUnits="userSpaceOnUse"
           x1="129.099"
           id="aq">
          <stop
             id="stop6185"
             offset="0"
             stop-color="#E4AE00" />
          <stop
             id="stop6187"
             offset=".415"
             stop-color="#D19E00" />
          <stop
             id="stop6189"
             offset="1"
             stop-color="#D19E00" />
        </linearGradient>
        <path
           inkscape:connector-curvature="0"
           style="fill:#000000;fill-opacity:1;stroke:none"
           id="path6191"
           d="m 137.499,109.166 c 1.673,0.817 2.838,1.824 5.757,3.757 4.499,3.562 11.875,4.614 16.166,4.827 10.029,1.378 27.615,-7.963 32.776,-11.398 3.691,-2.725 9.164,-7.232 11.265,-7.439 1.169,1.397 -1.061,1.644 -4.191,4.01 -3.796,2.618 -6.469,4.608 -11.968,7.722 -6.053,3.167 -16.077,8.801 -28.478,8.353 -6.657,-0.873 -8.27,-1.303 -11.512,-3.046 -2.809,-1.87 -7.755,-4.483 -9.815,-6.786 z" />
        <linearGradient
           y2="259.336"
           y1="259.336"
           gradientTransform="matrix(1,0,0,-1,8.3999,368.3)"
           x2="195.338"
           gradientUnits="userSpaceOnUse"
           x1="129.05099"
           id="ar">
          <stop
             id="stop6194"
             offset="0"
             stop-color="#E0A900" />
          <stop
             id="stop6196"
             offset=".415"
             stop-color="#C99600" />
          <stop
             id="stop6198"
             offset="1"
             stop-color="#C99600" />
        </linearGradient>
        <path
           inkscape:connector-curvature="0"
           style="fill:#000000;fill-opacity:1;stroke:none"
           id="path6200"
           d="m 137.451,109.147 c 1.622,0.726 2.972,1.86 5.892,3.798 4.475,3.528 11.705,4.614 16.04,4.84 10.161,1.362 27.929,-8.097 32.859,-11.447 3.757,-2.767 9.128,-7.178 11.2,-7.405 1.13,1.382 -1.128,1.619 -4.294,4.049 -3.777,2.592 -6.339,4.517 -11.767,7.589 -6.005,3.143 -16.077,8.803 -28.466,8.404 -6.676,-0.859 -8.553,-1.35 -11.663,-3.039 -2.876,-1.894 -7.729,-4.462 -9.801,-6.789 z" />
        <linearGradient
           y2="259.34"
           y1="259.34"
           gradientTransform="matrix(1,0,0,-1,8.3999,368.3)"
           x2="195.29601"
           gradientUnits="userSpaceOnUse"
           x1="129.00301"
           id="w">
          <stop
             id="stop6203"
             offset="0"
             stop-color="#DCA400" />
          <stop
             id="stop6205"
             offset=".415"
             stop-color="#C18E00" />
          <stop
             id="stop6207"
             offset="1"
             stop-color="#C18E00" />
        </linearGradient>
        <path
           inkscape:connector-curvature="0"
           style="fill:#000000;fill-opacity:1;stroke:none"
           id="path6209"
           d="m 137.403,109.129 c 1.571,0.634 3.105,1.896 6.026,3.838 4.45,3.494 11.536,4.614 15.913,4.852 10.295,1.348 28.241,-8.23 32.943,-11.494 3.824,-2.811 9.092,-7.125 11.134,-7.373 1.092,1.367 -1.194,1.594 -4.394,4.088 -3.759,2.565 -6.209,4.425 -11.566,7.457 -5.957,3.118 -16.077,8.804 -28.454,8.453 -6.694,-0.844 -8.837,-1.396 -11.813,-3.032 -2.945,-1.916 -7.706,-4.44 -9.789,-6.789 z" />
        <linearGradient
           y2="259.34299"
           y1="259.34299"
           gradientTransform="matrix(1,0,0,-1,8.3999,368.3)"
           x2="195.255"
           gradientUnits="userSpaceOnUse"
           x1="128.95399"
           id="x">
          <stop
             id="stop6212"
             offset="0"
             stop-color="#D79F00" />
          <stop
             id="stop6214"
             offset=".415"
             stop-color="#BA8700" />
          <stop
             id="stop6216"
             offset="1"
             stop-color="#BA8700" />
        </linearGradient>
        <path
           inkscape:connector-curvature="0"
           style="fill:#000000;fill-opacity:1;stroke:none"
           id="path6218"
           d="m 137.354,109.11 c 1.521,0.543 3.241,1.932 6.161,3.879 4.428,3.459 11.368,4.613 15.788,4.865 10.427,1.333 28.554,-8.364 33.026,-11.542 3.892,-2.855 9.057,-7.073 11.068,-7.339 1.052,1.353 -1.261,1.569 -4.495,4.127 -3.74,2.538 -6.078,4.334 -11.365,7.325 -5.91,3.093 -16.077,8.805 -28.441,8.503 -6.716,-0.83 -9.121,-1.443 -11.966,-3.026 -3.012,-1.939 -7.68,-4.42 -9.776,-6.792 z" />
        <linearGradient
           y2="259.34799"
           y1="259.34799"
           gradientTransform="matrix(1,0,0,-1,8.3999,368.3)"
           x2="195.216"
           gradientUnits="userSpaceOnUse"
           x1="128.90601"
           id="y">
          <stop
             id="stop6221"
             offset="0"
             stop-color="#D39B00" />
          <stop
             id="stop6223"
             offset=".415"
             stop-color="#B27F00" />
          <stop
             id="stop6225"
             offset="1"
             stop-color="#B27F00" />
        </linearGradient>
        <path
           inkscape:connector-curvature="0"
           style="fill:#000000;fill-opacity:1;stroke:none"
           id="path6227"
           d="m 137.306,109.091 c 1.47,0.451 3.375,1.969 6.296,3.919 4.403,3.426 11.2,4.614 15.662,4.879 10.559,1.318 28.865,-8.498 33.109,-11.59 3.958,-2.899 9.021,-7.02 11.003,-7.306 1.013,1.337 -1.328,1.544 -4.596,4.167 -3.722,2.511 -5.949,4.242 -11.165,7.192 -5.862,3.068 -16.077,8.807 -28.43,8.553 -6.734,-0.816 -9.405,-1.489 -12.116,-3.019 -3.08,-1.963 -7.656,-4.4 -9.763,-6.795 z" />
        <linearGradient
           y2="259.35001"
           y1="259.35001"
           gradientTransform="matrix(1,0,0,-1,8.3999,368.3)"
           x2="195.17599"
           gradientUnits="userSpaceOnUse"
           x1="128.85699"
           id="z">
          <stop
             id="stop6230"
             offset="0"
             stop-color="#CF9600" />
          <stop
             id="stop6232"
             offset=".415"
             stop-color="#a70" />
          <stop
             id="stop6234"
             offset="1"
             stop-color="#a70" />
        </linearGradient>
        <path
           inkscape:connector-curvature="0"
           style="fill:#000000;fill-opacity:1;stroke:none"
           id="path6236"
           d="m 137.257,109.073 c 1.421,0.359 3.511,2.005 6.432,3.959 4.38,3.392 11.032,4.614 15.536,4.892 10.691,1.303 29.179,-8.631 33.193,-11.638 4.024,-2.942 8.984,-6.967 10.938,-7.274 0.973,1.323 -1.396,1.521 -4.697,4.206 -3.703,2.484 -5.818,4.151 -10.964,7.06 -5.814,3.043 -16.077,8.808 -28.418,8.603 -6.753,-0.802 -9.689,-1.535 -12.268,-3.012 -3.149,-1.986 -7.632,-4.378 -9.752,-6.796 z" />
        <linearGradient
           y2="259.354"
           y1="259.354"
           gradientTransform="matrix(1,0,0,-1,8.3999,368.3)"
           x2="195.13699"
           gradientUnits="userSpaceOnUse"
           x1="128.80901"
           id="aa">
          <stop
             id="stop6239"
             offset="0"
             stop-color="#CA9100" />
          <stop
             id="stop6241"
             offset=".415"
             stop-color="#A37000" />
          <stop
             id="stop6243"
             offset="1"
             stop-color="#A37000" />
        </linearGradient>
        <path
           inkscape:connector-curvature="0"
           style="fill:#000000;fill-opacity:1;stroke:none"
           id="path6245"
           d="m 137.209,109.054 c 1.368,0.268 3.645,2.041 6.565,4 4.356,3.357 10.864,4.613 15.41,4.904 10.824,1.289 29.493,-8.764 33.277,-11.685 4.092,-2.986 8.948,-6.914 10.871,-7.241 0.935,1.308 -1.461,1.496 -4.797,4.245 -3.685,2.457 -5.688,4.06 -10.763,6.928 -5.768,3.018 -16.077,8.809 -28.407,8.653 -6.771,-0.788 -9.972,-1.582 -12.418,-3.006 -3.216,-2.008 -7.607,-4.357 -9.738,-6.798 z" />
        <linearGradient
           y2="259.35599"
           y1="259.35599"
           gradientTransform="matrix(1,0,0,-1,8.3999,368.3)"
           x2="195.099"
           gradientUnits="userSpaceOnUse"
           x1="128.75999"
           id="ab">
          <stop
             id="stop6248"
             offset="0"
             stop-color="#C68C00" />
          <stop
             id="stop6250"
             offset=".415"
             stop-color="#9B6800" />
          <stop
             id="stop6252"
             offset="1"
             stop-color="#9B6800" />
        </linearGradient>
        <path
           inkscape:connector-curvature="0"
           style="fill:#000000;fill-opacity:1;stroke:none"
           id="path6254"
           d="m 137.16,109.036 c 1.318,0.176 3.779,2.077 6.701,4.04 4.333,3.323 10.695,4.613 15.284,4.917 10.957,1.274 29.805,-8.898 33.36,-11.733 4.158,-3.03 8.912,-6.86 10.807,-7.208 0.894,1.292 -1.528,1.471 -4.899,4.284 -3.666,2.43 -5.558,3.968 -10.562,6.796 -5.72,2.993 -16.077,8.81 -28.396,8.702 -6.791,-0.773 -10.256,-1.628 -12.568,-2.999 -3.285,-2.031 -7.583,-4.336 -9.727,-6.799 z" />
        <linearGradient
           y2="259.358"
           y1="259.358"
           gradientTransform="matrix(1,0,0,-1,8.3999,368.3)"
           x2="195.062"
           gradientUnits="userSpaceOnUse"
           x1="128.71201"
           id="ac">
          <stop
             id="stop6257"
             offset="0"
             stop-color="#C28700" />
          <stop
             id="stop6259"
             offset=".415"
             stop-color="#936000" />
          <stop
             id="stop6261"
             offset="1"
             stop-color="#936000" />
        </linearGradient>
        <path
           inkscape:connector-curvature="0"
           style="fill:#000000;fill-opacity:1;stroke:none"
           id="path6263"
           d="m 137.112,109.017 c 1.267,0.085 3.912,2.113 6.835,4.081 4.31,3.289 10.527,4.613 15.158,4.93 11.09,1.258 30.118,-9.032 33.445,-11.782 4.225,-3.072 8.877,-6.807 10.739,-7.174 0.855,1.278 -1.595,1.446 -5,4.323 -3.647,2.404 -5.427,3.877 -10.36,6.663 -5.673,2.969 -16.077,8.812 -28.384,8.753 -6.811,-0.759 -10.54,-1.675 -12.719,-2.992 -3.353,-2.055 -7.559,-4.315 -9.714,-6.802 z" />
        <linearGradient
           y2="259.35999"
           y1="259.35999"
           gradientTransform="matrix(1,0,0,-1,8.3999,368.3)"
           x2="195.02499"
           gradientUnits="userSpaceOnUse"
           x1="128.66299"
           id="ad">
          <stop
             id="stop6266"
             offset="0"
             stop-color="#BD8200" />
          <stop
             id="stop6268"
             offset=".415"
             stop-color="#8C5900" />
          <stop
             id="stop6270"
             offset="1"
             stop-color="#8C5900" />
        </linearGradient>
        <path
           inkscape:connector-curvature="0"
           style="fill:#000000;fill-opacity:1;stroke:none"
           id="path6272"
           d="m 137.063,108.998 c 1.217,-0.006 4.047,2.15 6.97,4.122 4.286,3.254 10.359,4.612 15.032,4.943 11.223,1.243 30.431,-9.166 33.53,-11.83 4.289,-3.116 8.84,-6.753 10.673,-7.141 0.815,1.263 -1.661,1.421 -5.101,4.362 -3.63,2.377 -5.298,3.785 -10.161,6.531 -5.624,2.944 -16.075,8.813 -28.37,8.802 -6.83,-0.744 -10.824,-1.721 -12.87,-2.985 -3.422,-2.077 -7.535,-4.294 -9.703,-6.804 z" />
        <linearGradient
           y2="259.362"
           y1="259.362"
           gradientTransform="matrix(1,0,0,-1,8.3999,368.3)"
           x2="194.989"
           gradientUnits="userSpaceOnUse"
           x1="128.61501"
           id="ae">
          <stop
             id="stop6275"
             offset="0"
             stop-color="#B97D00" />
          <stop
             id="stop6277"
             offset=".415"
             stop-color="#845100" />
          <stop
             id="stop6279"
             offset="1"
             stop-color="#845100" />
        </linearGradient>
        <path
           inkscape:connector-curvature="0"
           style="fill:#000000;fill-opacity:1;stroke:none"
           id="path6281"
           d="m 137.015,108.98 c 1.166,-0.098 4.181,2.185 7.104,4.162 4.262,3.22 10.19,4.612 14.906,4.955 11.354,1.229 30.743,-9.299 33.613,-11.877 4.356,-3.16 8.804,-6.7 10.607,-7.108 0.776,1.248 -1.728,1.397 -5.202,4.401 -3.61,2.35 -5.167,3.694 -9.96,6.399 -5.576,2.919 -16.076,8.814 -28.358,8.852 -6.85,-0.73 -11.108,-1.768 -13.021,-2.979 -3.489,-2.1 -7.51,-4.273 -9.689,-6.805 z" />
        <linearGradient
           y2="259.36401"
           y1="259.36401"
           gradientTransform="matrix(1,0,0,-1,8.3999,368.3)"
           x2="194.95399"
           gradientUnits="userSpaceOnUse"
           x1="128.567"
           id="af">
          <stop
             id="stop6284"
             offset="0"
             stop-color="#B57800" />
          <stop
             id="stop6286"
             offset=".415"
             stop-color="#7C4900" />
          <stop
             id="stop6288"
             offset="1"
             stop-color="#7C4900" />
        </linearGradient>
        <path
           inkscape:connector-curvature="0"
           style="fill:#000000;fill-opacity:1;stroke:none"
           id="path6290"
           d="m 136.967,108.961 c 1.115,-0.189 4.315,2.222 7.239,4.203 4.239,3.186 10.021,4.612 14.78,4.968 11.488,1.214 31.057,-9.433 33.697,-11.925 4.424,-3.203 8.768,-6.647 10.542,-7.075 0.736,1.233 -1.795,1.372 -5.303,4.44 -3.593,2.323 -5.038,3.603 -9.759,6.266 -5.529,2.895 -16.077,8.816 -28.348,8.903 -6.868,-0.716 -11.392,-1.815 -13.172,-2.972 -3.557,-2.124 -7.485,-4.252 -9.676,-6.808 z" />
        <linearGradient
           y2="259.366"
           y1="259.366"
           gradientTransform="matrix(1,0,0,-1,8.3999,368.3)"
           x2="194.918"
           gradientUnits="userSpaceOnUse"
           x1="128.51801"
           id="ah">
          <stop
             id="stop6293"
             offset="0"
             stop-color="#B07300" />
          <stop
             id="stop6295"
             offset=".415"
             stop-color="#754200" />
          <stop
             id="stop6297"
             offset="1"
             stop-color="#754200" />
        </linearGradient>
        <path
           inkscape:connector-curvature="0"
           style="fill:#000000;fill-opacity:1;stroke:none"
           id="path6299"
           d="m 136.918,108.943 c 1.064,-0.281 4.45,2.257 7.374,4.243 4.216,3.151 9.854,4.611 14.654,4.981 11.621,1.199 31.37,-9.567 33.781,-11.973 4.49,-3.247 8.731,-6.594 10.476,-7.042 0.698,1.218 -1.861,1.347 -5.403,4.479 -3.573,2.296 -4.906,3.511 -9.558,6.134 -5.48,2.87 -16.076,8.817 -28.336,8.952 -6.887,-0.701 -11.675,-1.861 -13.323,-2.965 -3.626,-2.146 -7.462,-4.231 -9.665,-6.809 z" />
        <linearGradient
           y2="259.367"
           y1="259.367"
           gradientTransform="matrix(1,0,0,-1,8.3999,368.3)"
           x2="194.886"
           gradientUnits="userSpaceOnUse"
           x1="128.47"
           id="ai">
          <stop
             id="stop6302"
             offset="0"
             stop-color="#AC6E00" />
          <stop
             id="stop6304"
             offset=".415"
             stop-color="#6D3A00" />
          <stop
             id="stop6306"
             offset="1"
             stop-color="#6D3A00" />
        </linearGradient>
        <path
           inkscape:connector-curvature="0"
           style="fill:#000000;fill-opacity:1;stroke:none"
           id="path6308"
           d="m 136.87,108.924 c 1.013,-0.372 4.584,2.294 7.509,4.284 4.191,3.117 9.685,4.611 14.528,4.994 11.753,1.184 31.682,-9.701 33.864,-12.021 4.557,-3.291 8.695,-6.542 10.411,-7.009 0.657,1.203 -1.929,1.322 -5.504,4.518 -3.557,2.269 -4.777,3.42 -9.358,6.002 -5.434,2.845 -16.076,8.818 -28.324,9.002 -6.907,-0.687 -11.959,-1.908 -13.474,-2.959 -3.694,-2.169 -7.437,-4.21 -9.652,-6.811 z" />
        <linearGradient
           y2="259.36899"
           y1="259.36899"
           gradientTransform="matrix(1,0,0,-1,8.3999,368.3)"
           x2="194.85001"
           gradientUnits="userSpaceOnUse"
           x1="128.42101"
           id="aj">
          <stop
             id="stop6311"
             offset="0"
             stop-color="#A86A00" />
          <stop
             id="stop6313"
             offset=".415"
             stop-color="#663200" />
          <stop
             id="stop6315"
             offset="1"
             stop-color="#663200" />
        </linearGradient>
        <path
           inkscape:connector-curvature="0"
           style="fill:#000000;fill-opacity:1;stroke:none"
           id="path6317"
           d="m 136.821,108.905 c 0.963,-0.464 4.719,2.33 7.644,4.324 4.168,3.083 9.517,4.611 14.402,5.007 11.886,1.169 31.995,-9.834 33.948,-12.069 4.624,-3.334 8.66,-6.487 10.345,-6.976 0.619,1.188 -1.995,1.298 -5.604,4.558 -3.537,2.242 -4.647,3.328 -9.157,5.869 -5.386,2.82 -16.076,8.82 -28.313,9.052 -6.926,-0.673 -12.243,-1.954 -13.625,-2.952 -3.762,-2.192 -7.413,-4.189 -9.64,-6.813 z" />
      </g>
    </g>
    <g
       style="fill:#000000;stroke:none"
       transform="matrix(0.54363247,0,0,0.54363247,655.34097,917.16178)"
       id="g4984-8-4">
      <g
         style="fill:#000000;stroke:none"
         id="g4977-2-3"
         transform="translate(35.202493,-17.445483)">
        <path
           inkscape:transform-center-y="-0.069157745"
           inkscape:transform-center-x="0.59047885"
           transform="rotate(-20,-217.47783,-882.64919)"
           d="m -259.44614,-326.5824 c -3.34345,6.09687 22.17743,26.11013 16.75532,30.46342 -5.42211,4.35329 -19.44766,-24.8893 -26.12297,-22.94234 -6.67531,1.94697 -2.78083,34.14446 -9.69309,33.38869 -6.91225,-0.75577 3.84783,-31.35097 -2.24904,-34.69441 -6.09687,-3.34345 -26.11013,22.17743 -30.46342,16.75532 -4.35329,-5.42211 24.88931,-19.44766 22.94234,-26.12297 -1.94696,-6.67531 -34.14446,-2.78083 -33.38869,-9.69308 0.75577,-6.91226 31.35097,3.84782 34.69441,-2.24905 3.34345,-6.09687 -22.17743,-26.11012 -16.75532,-30.46342 5.42211,-4.35329 19.44766,24.88931 26.12297,22.94234 6.67531,-1.94696 2.78083,-34.14445 9.69309,-33.38869 6.91225,0.75577 -3.84783,31.35097 2.24904,34.69442 6.09687,3.34344 26.11013,-22.17744 30.46342,-16.75533 4.35329,5.42211 -24.88931,19.44767 -22.94234,26.12297 1.94696,6.67531 34.14446,2.78084 33.38869,9.69309 -0.75577,6.91225 -31.35097,-3.84782 -34.69441,2.24904 z"
           inkscape:randomized="0"
           inkscape:rounded="0.2"
           inkscape:flatsided="false"
           sodipodi:arg2="0.8943031"
           sodipodi:arg1="0.50160402"
           sodipodi:r2="48.745762"
           sodipodi:r1="15.696135"
           sodipodi:cy="-334.12961"
           sodipodi:cx="-273.20871"
           sodipodi:sides="8"
           id="path4936-5-4-12"
           style="fill:#000000;fill-opacity:1;stroke:none;stroke-width:4;stroke-miterlimit:4;stroke-dasharray:none;stroke-opacity:1"
           sodipodi:type="star" />
        <path
           inkscape:transform-center-y="-0.26694487"
           inkscape:transform-center-x="0.53122163"
           transform="translate(190.96573,-14.018692)"
           d="m -259.44614,-326.5824 c -3.34345,6.09687 22.17743,26.11013 16.75532,30.46342 -5.42211,4.35329 -19.44766,-24.8893 -26.12297,-22.94234 -6.67531,1.94697 -2.78083,34.14446 -9.69309,33.38869 -6.91225,-0.75577 3.84783,-31.35097 -2.24904,-34.69441 -6.09687,-3.34345 -26.11013,22.17743 -30.46342,16.75532 -4.35329,-5.42211 24.88931,-19.44766 22.94234,-26.12297 -1.94696,-6.67531 -34.14446,-2.78083 -33.38869,-9.69308 0.75577,-6.91226 31.35097,3.84782 34.69441,-2.24905 3.34345,-6.09687 -22.17743,-26.11012 -16.75532,-30.46342 5.42211,-4.35329 19.44766,24.88931 26.12297,22.94234 6.67531,-1.94696 2.78083,-34.14445 9.69309,-33.38869 6.91225,0.75577 -3.84783,31.35097 2.24904,34.69442 6.09687,3.34344 26.11013,-22.17744 30.46342,-16.75533 4.35329,5.42211 -24.88931,19.44767 -22.94234,26.12297 1.94696,6.67531 34.14446,2.78084 33.38869,9.69309 -0.75577,6.91225 -31.35097,-3.84782 -34.69441,2.24904 z"
           inkscape:randomized="0"
           inkscape:rounded="0.2"
           inkscape:flatsided="false"
           sodipodi:arg2="0.8943031"
           sodipodi:arg1="0.50160402"
           sodipodi:r2="48.745762"
           sodipodi:r1="15.696135"
           sodipodi:cy="-334.12961"
           sodipodi:cx="-273.20871"
           sodipodi:sides="8"
           id="path4936-55-33"
           style="fill:#000000;fill-opacity:1;stroke:none;stroke-width:4;stroke-miterlimit:4;stroke-dasharray:none;stroke-opacity:1"
           sodipodi:type="star" />
        <circle
           transform="matrix(0.44022458,0,0,0.44522337,84.171584,-178.45541)"
           id="path4972-4-6-1-4"
           style="fill:#000000;fill-opacity:1;stroke:none;stroke-width:10;stroke-miterlimit:4;stroke-dasharray:none;stroke-opacity:1"
           cx="-378.02197"
           cy="-381.14102"
           r="26.373627" />
      </g>
    </g>
    <path
       style="fill:#ffffff;stroke:#000000;stroke-width:10.64868927;stroke-miterlimit:4;stroke-dasharray:none;stroke-opacity:1"
       inkscape:connector-curvature="0"
       id="path5433"
       d="m 833.62816,708.89997 c 11.88393,17.24822 -0.38602,39.67702 8.24208,53.48038 14.18406,22.61781 42.74384,45.42464 53.66939,51.74996 7.85874,4.79191 18.97597,9.38949 18.58995,23.38186 -0.57503,15.91181 -8.43376,20.12869 -12.83965,24.53724 -8.81978,8.81978 -53.2887,30.8599 -82.80421,50.98593 -37.18522,25.49296 -50.02754,36.80186 -62.10315,48.87482 -18.78429,18.78694 -36.61019,25.1096 -65.16998,25.1096 -28.55978,0 -41.4021,-5.9393 -50.21655,-13.8007 -8.81978,-7.66705 -18.59261,-27.22071 -17.63423,-56.35286 0.76671,-28.94313 9.96717,-55.39714 14.37307,-100.44109 1.91942,-19.35666 1.72509,-43.31621 1.72509,-64.59495 0,-26.8347 0.38335,-49.64419 6.13364,-53.0917 10.35319,-6.517 12.65064,-6.90035 24.91793,-6.90035 12.26463,0 17.82591,0.76404 21.85111,4.78925 3.83087,3.83353 2.30012,12.65064 0.95572,25.11227 -1.15006,12.46163 4.79457,16.48417 10.73388,21.65943 5.94197,4.98359 11.30891,11.30891 30.09586,12.84232 18.78428,1.34173 25.68197,-1.72509 34.50175,-7.2837 8.81711,-5.55862 21.27342,-15.52579 25.87631,-21.27608 4.40856,-5.55862 15.33411,-24.7236 17.44255,-24.7236 1.91411,0 14.56741,-4.40855 21.65944,5.94197 z" />
    <path
       sodipodi:nodetypes="cccc"
       inkscape:connector-curvature="0"
       id="path9588-4"
       d="M 570.98757,447.3013 484.73891,473.21161 653.93446,368.1164 Z"
       style="fill:#ffffff;stroke:#000000;stroke-width:10.64868927;stroke-miterlimit:4;stroke-dasharray:none;stroke-opacity:1" />
    <path
       sodipodi:nodetypes="cccccc"
       inkscape:connector-curvature="0"
       id="path9588-9"
       d="m 615.80169,446.7678 c -2.97071,-8.25744 -6.90644,-16.51486 -18.49395,-24.77231 l 56.62672,-54.94606 51.98546,-34.56967 c 7.60471,9.07101 10.66501,18.14202 12.62969,27.21302 z"
       style="fill:#ffffff;stroke:#000000;stroke-width:10.64868927;stroke-miterlimit:4;stroke-dasharray:none;stroke-opacity:1" />
    <path
       sodipodi:nodetypes="cccccc"
       inkscape:connector-curvature="0"
       id="path7952"
       d="m 740.71004,560.40819 c 26.61406,-10.80659 48.2773,-31.06473 89.53897,-13.90767 -9.52839,-23.60476 -39.9164,-67.89852 -49.86541,-80.05487 -19.53305,-32.01704 -17.98274,-24.10318 -55.83489,-74.43913 -74.2726,3.38301 -67.10428,54.3204 -51.68857,78.6067 20.29946,13.01276 62.56778,35.8604 67.8499,89.79497 z"
       style="fill:#ffffff;stroke:#000000;stroke-width:10.64868927;stroke-miterlimit:4;stroke-dasharray:none" />
    <path
       sodipodi:nodetypes="cccccccccc"
       inkscape:connector-curvature="0"
       id="path7950-1"
       d="m 498.93148,472.96105 4.59864,375.93015 c -50.65818,-22.95008 -82.04855,-24.40016 -104.26728,-28.854 8.11454,-40.5985 -11.02858,-36.47592 -64.21609,-88.62143 -16.9218,-12.91829 -42.87742,-36.4441 -57.88332,-45.68223 -2.02221,-30.45845 -0.96921,-61.84077 10.01352,-107.69065 15.69625,-41.56385 17.84377,-39.86674 43.60545,-89.28345 21.40975,-71.22948 -36.28969,-44.75915 -23.76518,-60.8473 6.65945,-12.22491 5.88864,-8.48336 36.30817,-51.03293 z"
       style="fill:#ffffff;stroke:#000000;stroke-width:10.64868927;stroke-miterlimit:4;stroke-dasharray:none" />
    <g
       style="fill:#000000;stroke:none"
       transform="matrix(0.54363247,0,0,0.54363247,345.63783,745.54232)"
       id="g4984-8-76">
      <g
         style="fill:#000000;stroke:none"
         id="g4977-2-14"
         transform="translate(35.202493,-17.445483)">
        <path
           inkscape:transform-center-y="-0.069157745"
           inkscape:transform-center-x="0.59047885"
           transform="rotate(-20,-217.47783,-882.64919)"
           d="m -259.44614,-326.5824 c -3.34345,6.09687 22.17743,26.11013 16.75532,30.46342 -5.42211,4.35329 -19.44766,-24.8893 -26.12297,-22.94234 -6.67531,1.94697 -2.78083,34.14446 -9.69309,33.38869 -6.91225,-0.75577 3.84783,-31.35097 -2.24904,-34.69441 -6.09687,-3.34345 -26.11013,22.17743 -30.46342,16.75532 -4.35329,-5.42211 24.88931,-19.44766 22.94234,-26.12297 -1.94696,-6.67531 -34.14446,-2.78083 -33.38869,-9.69308 0.75577,-6.91226 31.35097,3.84782 34.69441,-2.24905 3.34345,-6.09687 -22.17743,-26.11012 -16.75532,-30.46342 5.42211,-4.35329 19.44766,24.88931 26.12297,22.94234 6.67531,-1.94696 2.78083,-34.14445 9.69309,-33.38869 6.91225,0.75577 -3.84783,31.35097 2.24904,34.69442 6.09687,3.34344 26.11013,-22.17744 30.46342,-16.75533 4.35329,5.42211 -24.88931,19.44767 -22.94234,26.12297 1.94696,6.67531 34.14446,2.78084 33.38869,9.69309 -0.75577,6.91225 -31.35097,-3.84782 -34.69441,2.24904 z"
           inkscape:randomized="0"
           inkscape:rounded="0.2"
           inkscape:flatsided="false"
           sodipodi:arg2="0.8943031"
           sodipodi:arg1="0.50160402"
           sodipodi:r2="48.745762"
           sodipodi:r1="15.696135"
           sodipodi:cy="-334.12961"
           sodipodi:cx="-273.20871"
           sodipodi:sides="8"
           id="path4936-5-4-2"
           style="fill:#000000;fill-opacity:1;stroke:none;stroke-width:4;stroke-miterlimit:4;stroke-dasharray:none;stroke-opacity:1"
           sodipodi:type="star" />
        <path
           inkscape:transform-center-y="-0.26694487"
           inkscape:transform-center-x="0.53122163"
           transform="translate(190.96573,-14.018692)"
           d="m -259.44614,-326.5824 c -3.34345,6.09687 22.17743,26.11013 16.75532,30.46342 -5.42211,4.35329 -19.44766,-24.8893 -26.12297,-22.94234 -6.67531,1.94697 -2.78083,34.14446 -9.69309,33.38869 -6.91225,-0.75577 3.84783,-31.35097 -2.24904,-34.69441 -6.09687,-3.34345 -26.11013,22.17743 -30.46342,16.75532 -4.35329,-5.42211 24.88931,-19.44766 22.94234,-26.12297 -1.94696,-6.67531 -34.14446,-2.78083 -33.38869,-9.69308 0.75577,-6.91226 31.35097,3.84782 34.69441,-2.24905 3.34345,-6.09687 -22.17743,-26.11012 -16.75532,-30.46342 5.42211,-4.35329 19.44766,24.88931 26.12297,22.94234 6.67531,-1.94696 2.78083,-34.14445 9.69309,-33.38869 6.91225,0.75577 -3.84783,31.35097 2.24904,34.69442 6.09687,3.34344 26.11013,-22.17744 30.46342,-16.75533 4.35329,5.42211 -24.88931,19.44767 -22.94234,26.12297 1.94696,6.67531 34.14446,2.78084 33.38869,9.69309 -0.75577,6.91225 -31.35097,-3.84782 -34.69441,2.24904 z"
           inkscape:randomized="0"
           inkscape:rounded="0.2"
           inkscape:flatsided="false"
           sodipodi:arg2="0.8943031"
           sodipodi:arg1="0.50160402"
           sodipodi:r2="48.745762"
           sodipodi:r1="15.696135"
           sodipodi:cy="-334.12961"
           sodipodi:cx="-273.20871"
           sodipodi:sides="8"
           id="path4936-55-3"
           style="fill:#000000;fill-opacity:1;stroke:none;stroke-width:4;stroke-miterlimit:4;stroke-dasharray:none;stroke-opacity:1"
           sodipodi:type="star" />
        <circle
           transform="matrix(0.44022458,0,0,0.44522337,84.171584,-178.45541)"
           id="path4972-4-6-1-22"
           style="fill:#000000;fill-opacity:1;stroke:none;stroke-width:10;stroke-miterlimit:4;stroke-dasharray:none;stroke-opacity:1"
           cx="-378.02197"
           cy="-381.14102"
           r="26.373627" />
      </g>
    </g>
    <path
       sodipodi:nodetypes="cccccc"
       inkscape:connector-curvature="0"
       id="path9588-9-7"
       d="m 403.66823,460.18241 c 2.20103,-6.48756 5.11702,-12.97506 13.70215,-19.46258 L 375.41577,397.551 336.89986,370.39104 c -5.6343,7.12669 -7.90164,14.25343 -9.35729,21.38017 z"
       style="fill:#ffffff;stroke:#000000;stroke-width:10.64868927;stroke-miterlimit:4;stroke-dasharray:none;stroke-opacity:1" />
    <path
       sodipodi:nodetypes="cccc"
       inkscape:connector-curvature="0"
       id="path9588-4-1"
       d="m 429.85126,452.5814 68.63796,21.04812 -134.64833,-85.37363 z"
       style="fill:#ffffff;stroke:#000000;stroke-width:10.64868927;stroke-miterlimit:4;stroke-dasharray:none;stroke-opacity:1" />
    <path
       sodipodi:nodetypes="cccccc"
       inkscape:connector-curvature="0"
       id="path7952-7"
       d="m 287.58919,584.05001 c -26.61405,-10.80659 -21.53402,-20.7321 -62.79568,-3.57504 8.92058,-27.85939 18.64334,-55.13467 35.88597,-86.1329 10.41601,-22.29223 25.88416,-50.23868 53.40368,-76.87036 74.2726,3.38301 45.61613,56.35891 29.14192,73.76486 -16.59465,17.77609 -40.02113,41.91787 -55.63589,92.81344 z"
       style="fill:#ffffff;stroke:#000000;stroke-width:10.64868927;stroke-miterlimit:4;stroke-dasharray:none" />
    <g
       style="fill:#ffffff;stroke:#000000;stroke-width:13.87149886;stroke-miterlimit:4;stroke-dasharray:none;stroke-opacity:1"
       id="g4976-1-1-2"
       transform="matrix(0.76768921,0,0,0.76768921,551.3791,727.8487)">
      <path
         sodipodi:type="star"
         style="fill:#ffffff;fill-opacity:1;stroke:#000000;stroke-width:13.87149886;stroke-miterlimit:4;stroke-dasharray:none;stroke-opacity:1"
         id="path5080-4-96-9"
         sodipodi:sides="5"
         sodipodi:cx="2.5382888"
         sodipodi:cy="-258.6398"
         sodipodi:r1="52.516361"
         sodipodi:r2="37.922443"
         sodipodi:arg1="0.81103358"
         sodipodi:arg2="2.9296696"
         inkscape:flatsided="false"
         inkscape:rounded="1.08"
         inkscape:randomized="0"
         d="m 38.708904,-220.56547 c -63.667622,-57.101 11.5358,-41.33884 -73.244666,-30.09771 -42.870637,5.68426 -5.471646,77.73073 12.040544,38.18929 34.6319,-78.19668 42.880329,-1.8032 5.99078,-78.96052 -18.653808,-39.01586 -75.617156,18.81628 -32.599447,23.25238 85.071314,8.77279 14.965702,40.2244 76.947172,-18.70257 31.34195,-29.79739 -41.262326,-66.10164 -32.1881095,-23.81854 17.9450635,83.61857 -33.6310165,26.66325 41.5651875,67.4017 38.024198,20.60007 50.115635,-59.66933 12.706101,-37.97304 -73.980655,42.90632 -35.750813,-23.74561 -51.2584737,60.35911 -7.8417035,42.52893 72.2354917,29.22396 40.0409117,0.3499 z"
         transform="translate(-164.98879,17.13345)"
         inkscape:transform-center-x="1.8231288"
         inkscape:transform-center-y="0.085001806" />
      <circle
         style="fill:#ffffff;fill-opacity:1;stroke:#000000;stroke-width:13.87149886;stroke-miterlimit:4;stroke-dasharray:none;stroke-opacity:1"
         id="path4974-5-91-2"
         transform="translate(120.94395,-62.83186)"
         cx="-282.00589"
         cy="-178.65309"
         r="17.109144" />
    </g>
    <g
       style="fill:#ffffff;stroke:#000000;stroke-width:12.7288286;stroke-miterlimit:4;stroke-dasharray:none;stroke-opacity:1"
       id="g4976-1-5-2-0"
       transform="matrix(-0.51676777,0.18808808,0.18808808,0.51676777,563.74968,639.53686)">
      <path
         sodipodi:type="star"
         style="fill:#ffffff;fill-opacity:1;stroke:#000000;stroke-width:12.7288286;stroke-miterlimit:4;stroke-dasharray:none;stroke-opacity:1"
         id="path5080-4-9-8-7"
         sodipodi:sides="5"
         sodipodi:cx="2.5382888"
         sodipodi:cy="-258.6398"
         sodipodi:r1="52.516361"
         sodipodi:r2="37.922443"
         sodipodi:arg1="0.81103358"
         sodipodi:arg2="2.9296696"
         inkscape:flatsided="false"
         inkscape:rounded="1.08"
         inkscape:randomized="0"
         d="m 38.708904,-220.56547 c -63.667622,-57.101 11.5358,-41.33884 -73.244666,-30.09771 -42.870637,5.68426 -5.471646,77.73073 12.040544,38.18929 34.6319,-78.19668 42.880329,-1.8032 5.99078,-78.96052 -18.653808,-39.01586 -75.617156,18.81628 -32.599447,23.25238 85.071314,8.77279 14.965702,40.2244 76.947172,-18.70257 31.34195,-29.79739 -41.262326,-66.10164 -32.1881095,-23.81854 17.9450635,83.61857 -33.6310165,26.66325 41.5651875,67.4017 38.024198,20.60007 50.115635,-59.66933 12.706101,-37.97304 -73.980655,42.90632 -35.750813,-23.74561 -51.2584737,60.35911 -7.8417035,42.52893 72.2354917,29.22396 40.0409117,0.3499 z"
         transform="translate(-164.98879,17.13345)"
         inkscape:transform-center-x="1.8231288"
         inkscape:transform-center-y="0.085001806" />
      <circle
         style="fill:#ffffff;fill-opacity:1;stroke:#000000;stroke-width:12.7288286;stroke-miterlimit:4;stroke-dasharray:none;stroke-opacity:1"
         id="path4974-5-9-8-9"
         transform="translate(120.94395,-62.83186)"
         cx="-282.00589"
         cy="-178.65309"
         r="17.109144" />
    </g>
    <g
       style="fill:#ffffff;stroke:#000000;stroke-width:12.7288286;stroke-miterlimit:4;stroke-dasharray:none;stroke-opacity:1"
       id="g4976-1-5-2-4"
       transform="matrix(-0.51676777,0.18808808,0.18808808,0.51676777,292.76794,800.93475)">
      <path
         sodipodi:type="star"
         style="fill:#ffffff;fill-opacity:1;stroke:#000000;stroke-width:12.7288286;stroke-miterlimit:4;stroke-dasharray:none;stroke-opacity:1"
         id="path5080-4-9-8-8"
         sodipodi:sides="5"
         sodipodi:cx="2.5382888"
         sodipodi:cy="-258.6398"
         sodipodi:r1="52.516361"
         sodipodi:r2="37.922443"
         sodipodi:arg1="0.81103358"
         sodipodi:arg2="2.9296696"
         inkscape:flatsided="false"
         inkscape:rounded="1.08"
         inkscape:randomized="0"
         d="m 38.708904,-220.56547 c -63.667622,-57.101 11.5358,-41.33884 -73.244666,-30.09771 -42.870637,5.68426 -5.471646,77.73073 12.040544,38.18929 34.6319,-78.19668 42.880329,-1.8032 5.99078,-78.96052 -18.653808,-39.01586 -75.617156,18.81628 -32.599447,23.25238 85.071314,8.77279 14.965702,40.2244 76.947172,-18.70257 31.34195,-29.79739 -41.262326,-66.10164 -32.1881095,-23.81854 17.9450635,83.61857 -33.6310165,26.66325 41.5651875,67.4017 38.024198,20.60007 50.115635,-59.66933 12.706101,-37.97304 -73.980655,42.90632 -35.750813,-23.74561 -51.2584737,60.35911 -7.8417035,42.52893 72.2354917,29.22396 40.0409117,0.3499 z"
         transform="translate(-164.98879,17.13345)"
         inkscape:transform-center-x="1.8231288"
         inkscape:transform-center-y="0.085001806" />
      <circle
         style="fill:#ffffff;fill-opacity:1;stroke:#000000;stroke-width:12.7288286;stroke-miterlimit:4;stroke-dasharray:none;stroke-opacity:1"
         id="path4974-5-9-8-8"
         transform="translate(120.94395,-62.83186)"
         cx="-282.00589"
         cy="-178.65309"
         r="17.109144" />
    </g>
    <g
       style="fill:#ffffff;stroke:#000000;stroke-width:13.87149886;stroke-miterlimit:4;stroke-dasharray:none;stroke-opacity:1"
       id="g4976-1-1"
       transform="matrix(0.76768921,0,0,0.76768921,790.27625,791.67803)">
      <path
         sodipodi:type="star"
         style="fill:#ffffff;fill-opacity:1;stroke:#000000;stroke-width:13.87149886;stroke-miterlimit:4;stroke-dasharray:none;stroke-opacity:1"
         id="path5080-4-96"
         sodipodi:sides="5"
         sodipodi:cx="2.5382888"
         sodipodi:cy="-258.6398"
         sodipodi:r1="52.516361"
         sodipodi:r2="37.922443"
         sodipodi:arg1="0.81103358"
         sodipodi:arg2="2.9296696"
         inkscape:flatsided="false"
         inkscape:rounded="1.08"
         inkscape:randomized="0"
         d="m 38.708904,-220.56547 c -63.667622,-57.101 11.5358,-41.33884 -73.244666,-30.09771 -42.870637,5.68426 -5.471646,77.73073 12.040544,38.18929 34.6319,-78.19668 42.880329,-1.8032 5.99078,-78.96052 -18.653808,-39.01586 -75.617156,18.81628 -32.599447,23.25238 85.071314,8.77279 14.965702,40.2244 76.947172,-18.70257 31.34195,-29.79739 -41.262326,-66.10164 -32.1881095,-23.81854 17.9450635,83.61857 -33.6310165,26.66325 41.5651875,67.4017 38.024198,20.60007 50.115635,-59.66933 12.706101,-37.97304 -73.980655,42.90632 -35.750813,-23.74561 -51.2584737,60.35911 -7.8417035,42.52893 72.2354917,29.22396 40.0409117,0.3499 z"
         transform="translate(-164.98879,17.13345)"
         inkscape:transform-center-x="1.8231288"
         inkscape:transform-center-y="0.085001806" />
      <circle
         style="fill:#ffffff;fill-opacity:1;stroke:#000000;stroke-width:13.87149886;stroke-miterlimit:4;stroke-dasharray:none;stroke-opacity:1"
         id="path4974-5-91"
         transform="translate(120.94395,-62.83186)"
         cx="-282.00589"
         cy="-178.65309"
         r="17.109144" />
    </g>
    <g
       style="fill:#000000;stroke:none"
       transform="matrix(0.54363247,0,0,0.54363247,594.21158,773.00415)"
       id="g4984-8-11">
      <g
         style="fill:#000000;stroke:none"
         id="g4977-2-38"
         transform="translate(35.202493,-17.445483)">
        <path
           inkscape:transform-center-y="-0.069157745"
           inkscape:transform-center-x="0.59047885"
           transform="rotate(-20,-217.47783,-882.64919)"
           d="m -259.44614,-326.5824 c -3.34345,6.09687 22.17743,26.11013 16.75532,30.46342 -5.42211,4.35329 -19.44766,-24.8893 -26.12297,-22.94234 -6.67531,1.94697 -2.78083,34.14446 -9.69309,33.38869 -6.91225,-0.75577 3.84783,-31.35097 -2.24904,-34.69441 -6.09687,-3.34345 -26.11013,22.17743 -30.46342,16.75532 -4.35329,-5.42211 24.88931,-19.44766 22.94234,-26.12297 -1.94696,-6.67531 -34.14446,-2.78083 -33.38869,-9.69308 0.75577,-6.91226 31.35097,3.84782 34.69441,-2.24905 3.34345,-6.09687 -22.17743,-26.11012 -16.75532,-30.46342 5.42211,-4.35329 19.44766,24.88931 26.12297,22.94234 6.67531,-1.94696 2.78083,-34.14445 9.69309,-33.38869 6.91225,0.75577 -3.84783,31.35097 2.24904,34.69442 6.09687,3.34344 26.11013,-22.17744 30.46342,-16.75533 4.35329,5.42211 -24.88931,19.44767 -22.94234,26.12297 1.94696,6.67531 34.14446,2.78084 33.38869,9.69309 -0.75577,6.91225 -31.35097,-3.84782 -34.69441,2.24904 z"
           inkscape:randomized="0"
           inkscape:rounded="0.2"
           inkscape:flatsided="false"
           sodipodi:arg2="0.8943031"
           sodipodi:arg1="0.50160402"
           sodipodi:r2="48.745762"
           sodipodi:r1="15.696135"
           sodipodi:cy="-334.12961"
           sodipodi:cx="-273.20871"
           sodipodi:sides="8"
           id="path4936-5-4-7"
           style="fill:#000000;fill-opacity:1;stroke:none;stroke-width:4;stroke-miterlimit:4;stroke-dasharray:none;stroke-opacity:1"
           sodipodi:type="star" />
        <path
           inkscape:transform-center-y="-0.26694487"
           inkscape:transform-center-x="0.53122163"
           transform="translate(190.96573,-14.018692)"
           d="m -259.44614,-326.5824 c -3.34345,6.09687 22.17743,26.11013 16.75532,30.46342 -5.42211,4.35329 -19.44766,-24.8893 -26.12297,-22.94234 -6.67531,1.94697 -2.78083,34.14446 -9.69309,33.38869 -6.91225,-0.75577 3.84783,-31.35097 -2.24904,-34.69441 -6.09687,-3.34345 -26.11013,22.17743 -30.46342,16.75532 -4.35329,-5.42211 24.88931,-19.44766 22.94234,-26.12297 -1.94696,-6.67531 -34.14446,-2.78083 -33.38869,-9.69308 0.75577,-6.91226 31.35097,3.84782 34.69441,-2.24905 3.34345,-6.09687 -22.17743,-26.11012 -16.75532,-30.46342 5.42211,-4.35329 19.44766,24.88931 26.12297,22.94234 6.67531,-1.94696 2.78083,-34.14445 9.69309,-33.38869 6.91225,0.75577 -3.84783,31.35097 2.24904,34.69442 6.09687,3.34344 26.11013,-22.17744 30.46342,-16.75533 4.35329,5.42211 -24.88931,19.44767 -22.94234,26.12297 1.94696,6.67531 34.14446,2.78084 33.38869,9.69309 -0.75577,6.91225 -31.35097,-3.84782 -34.69441,2.24904 z"
           inkscape:randomized="0"
           inkscape:rounded="0.2"
           inkscape:flatsided="false"
           sodipodi:arg2="0.8943031"
           sodipodi:arg1="0.50160402"
           sodipodi:r2="48.745762"
           sodipodi:r1="15.696135"
           sodipodi:cy="-334.12961"
           sodipodi:cx="-273.20871"
           sodipodi:sides="8"
           id="path4936-55-4"
           style="fill:#000000;fill-opacity:1;stroke:none;stroke-width:4;stroke-miterlimit:4;stroke-dasharray:none;stroke-opacity:1"
           sodipodi:type="star" />
        <circle
           transform="matrix(0.44022458,0,0,0.44522337,84.171584,-178.45541)"
           id="path4972-4-6-1-27"
           style="fill:#000000;fill-opacity:1;stroke:none;stroke-width:10;stroke-miterlimit:4;stroke-dasharray:none;stroke-opacity:1"
           cx="-378.02197"
           cy="-381.14102"
           r="26.373627" />
      </g>
    </g>
    <g
       style="fill:#000000;stroke:none;stroke-width:2;stroke-miterlimit:4;stroke-dasharray:none;stroke-opacity:1"
       transform="matrix(0.54363247,0,0,0.54363247,453.10315,837.3263)"
       id="g4984-8-1">
      <g
         style="fill:#000000;stroke:none;stroke-width:2;stroke-miterlimit:4;stroke-dasharray:none;stroke-opacity:1"
         id="g4977-2-6"
         transform="translate(35.202493,-17.445483)">
        <path
           inkscape:transform-center-y="-0.069157745"
           inkscape:transform-center-x="0.59047885"
           transform="rotate(-20,-217.47783,-882.64919)"
           d="m -259.44614,-326.5824 c -3.34345,6.09687 22.17743,26.11013 16.75532,30.46342 -5.42211,4.35329 -19.44766,-24.8893 -26.12297,-22.94234 -6.67531,1.94697 -2.78083,34.14446 -9.69309,33.38869 -6.91225,-0.75577 3.84783,-31.35097 -2.24904,-34.69441 -6.09687,-3.34345 -26.11013,22.17743 -30.46342,16.75532 -4.35329,-5.42211 24.88931,-19.44766 22.94234,-26.12297 -1.94696,-6.67531 -34.14446,-2.78083 -33.38869,-9.69308 0.75577,-6.91226 31.35097,3.84782 34.69441,-2.24905 3.34345,-6.09687 -22.17743,-26.11012 -16.75532,-30.46342 5.42211,-4.35329 19.44766,24.88931 26.12297,22.94234 6.67531,-1.94696 2.78083,-34.14445 9.69309,-33.38869 6.91225,0.75577 -3.84783,31.35097 2.24904,34.69442 6.09687,3.34344 26.11013,-22.17744 30.46342,-16.75533 4.35329,5.42211 -24.88931,19.44767 -22.94234,26.12297 1.94696,6.67531 34.14446,2.78084 33.38869,9.69309 -0.75577,6.91225 -31.35097,-3.84782 -34.69441,2.24904 z"
           inkscape:randomized="0"
           inkscape:rounded="0.2"
           inkscape:flatsided="false"
           sodipodi:arg2="0.8943031"
           sodipodi:arg1="0.50160402"
           sodipodi:r2="48.745762"
           sodipodi:r1="15.696135"
           sodipodi:cy="-334.12961"
           sodipodi:cx="-273.20871"
           sodipodi:sides="8"
           id="path4936-5-4-8"
           style="fill:#000000;fill-opacity:1;stroke:none;stroke-width:2;stroke-miterlimit:4;stroke-dasharray:none;stroke-opacity:1"
           sodipodi:type="star" />
        <path
           inkscape:transform-center-y="-0.26694487"
           inkscape:transform-center-x="0.53122163"
           transform="translate(190.96573,-14.018692)"
           d="m -259.44614,-326.5824 c -3.34345,6.09687 22.17743,26.11013 16.75532,30.46342 -5.42211,4.35329 -19.44766,-24.8893 -26.12297,-22.94234 -6.67531,1.94697 -2.78083,34.14446 -9.69309,33.38869 -6.91225,-0.75577 3.84783,-31.35097 -2.24904,-34.69441 -6.09687,-3.34345 -26.11013,22.17743 -30.46342,16.75532 -4.35329,-5.42211 24.88931,-19.44766 22.94234,-26.12297 -1.94696,-6.67531 -34.14446,-2.78083 -33.38869,-9.69308 0.75577,-6.91226 31.35097,3.84782 34.69441,-2.24905 3.34345,-6.09687 -22.17743,-26.11012 -16.75532,-30.46342 5.42211,-4.35329 19.44766,24.88931 26.12297,22.94234 6.67531,-1.94696 2.78083,-34.14445 9.69309,-33.38869 6.91225,0.75577 -3.84783,31.35097 2.24904,34.69442 6.09687,3.34344 26.11013,-22.17744 30.46342,-16.75533 4.35329,5.42211 -24.88931,19.44767 -22.94234,26.12297 1.94696,6.67531 34.14446,2.78084 33.38869,9.69309 -0.75577,6.91225 -31.35097,-3.84782 -34.69441,2.24904 z"
           inkscape:randomized="0"
           inkscape:rounded="0.2"
           inkscape:flatsided="false"
           sodipodi:arg2="0.8943031"
           sodipodi:arg1="0.50160402"
           sodipodi:r2="48.745762"
           sodipodi:r1="15.696135"
           sodipodi:cy="-334.12961"
           sodipodi:cx="-273.20871"
           sodipodi:sides="8"
           id="path4936-55-57"
           style="fill:#000000;fill-opacity:1;stroke:none;stroke-width:2;stroke-miterlimit:4;stroke-dasharray:none;stroke-opacity:1"
           sodipodi:type="star" />
        <circle
           transform="matrix(0.44022458,0,0,0.44522337,84.171584,-178.45541)"
           id="path4972-4-6-1-6"
           style="fill:#000000;fill-opacity:1;stroke:none;stroke-width:2;stroke-miterlimit:4;stroke-dasharray:none;stroke-opacity:1"
           cx="-378.02197"
           cy="-381.14102"
           r="26.373627" />
      </g>
    </g>
    <g
       style="fill:#ffffff;stroke:#000000;stroke-width:12.7288286;stroke-miterlimit:4;stroke-dasharray:none;stroke-opacity:1"
       id="g4976-1-5-2-3"
       transform="matrix(-0.51676777,0.18808808,0.18808808,0.51676777,506.57551,829.52185)">
      <path
         sodipodi:type="star"
         style="fill:#ffffff;fill-opacity:1;stroke:#000000;stroke-width:12.7288286;stroke-miterlimit:4;stroke-dasharray:none;stroke-opacity:1"
         id="path5080-4-9-8-2"
         sodipodi:sides="5"
         sodipodi:cx="2.5382888"
         sodipodi:cy="-258.6398"
         sodipodi:r1="52.516361"
         sodipodi:r2="37.922443"
         sodipodi:arg1="0.81103358"
         sodipodi:arg2="2.9296696"
         inkscape:flatsided="false"
         inkscape:rounded="1.08"
         inkscape:randomized="0"
         d="m 38.708904,-220.56547 c -63.667622,-57.101 11.5358,-41.33884 -73.244666,-30.09771 -42.870637,5.68426 -5.471646,77.73073 12.040544,38.18929 34.6319,-78.19668 42.880329,-1.8032 5.99078,-78.96052 -18.653808,-39.01586 -75.617156,18.81628 -32.599447,23.25238 85.071314,8.77279 14.965702,40.2244 76.947172,-18.70257 31.34195,-29.79739 -41.262326,-66.10164 -32.1881095,-23.81854 17.9450635,83.61857 -33.6310165,26.66325 41.5651875,67.4017 38.024198,20.60007 50.115635,-59.66933 12.706101,-37.97304 -73.980655,42.90632 -35.750813,-23.74561 -51.2584737,60.35911 -7.8417035,42.52893 72.2354917,29.22396 40.0409117,0.3499 z"
         transform="translate(-164.98879,17.13345)"
         inkscape:transform-center-x="1.8231288"
         inkscape:transform-center-y="0.085001806" />
      <circle
         style="fill:#ffffff;fill-opacity:1;stroke:#000000;stroke-width:12.7288286;stroke-miterlimit:4;stroke-dasharray:none;stroke-opacity:1"
         id="path4974-5-9-8-0"
         transform="translate(120.94395,-62.83186)"
         cx="-282.00589"
         cy="-178.65309"
         r="17.109144" />
    </g>
    <g
       style="fill:#ffffff;stroke:#000000;stroke-width:13.87149886;stroke-miterlimit:4;stroke-dasharray:none;stroke-opacity:1"
       id="g4976-1-1-8"
       transform="matrix(0.76768921,0,0,0.76768921,566.85231,936.0992)">
      <path
         sodipodi:type="star"
         style="fill:#ffffff;fill-opacity:1;stroke:#000000;stroke-width:13.87149886;stroke-miterlimit:4;stroke-dasharray:none;stroke-opacity:1"
         id="path5080-4-96-3"
         sodipodi:sides="5"
         sodipodi:cx="2.5382888"
         sodipodi:cy="-258.6398"
         sodipodi:r1="52.516361"
         sodipodi:r2="37.922443"
         sodipodi:arg1="0.81103358"
         sodipodi:arg2="2.9296696"
         inkscape:flatsided="false"
         inkscape:rounded="1.08"
         inkscape:randomized="0"
         d="m 38.708904,-220.56547 c -63.667622,-57.101 11.5358,-41.33884 -73.244666,-30.09771 -42.870637,5.68426 -5.471646,77.73073 12.040544,38.18929 34.6319,-78.19668 42.880329,-1.8032 5.99078,-78.96052 -18.653808,-39.01586 -75.617156,18.81628 -32.599447,23.25238 85.071314,8.77279 14.965702,40.2244 76.947172,-18.70257 31.34195,-29.79739 -41.262326,-66.10164 -32.1881095,-23.81854 17.9450635,83.61857 -33.6310165,26.66325 41.5651875,67.4017 38.024198,20.60007 50.115635,-59.66933 12.706101,-37.97304 -73.980655,42.90632 -35.750813,-23.74561 -51.2584737,60.35911 -7.8417035,42.52893 72.2354917,29.22396 40.0409117,0.3499 z"
         transform="translate(-164.98879,17.13345)"
         inkscape:transform-center-x="1.8231288"
         inkscape:transform-center-y="0.085001806" />
      <circle
         style="fill:#ffffff;fill-opacity:1;stroke:#000000;stroke-width:13.87149886;stroke-miterlimit:4;stroke-dasharray:none;stroke-opacity:1"
         id="path4974-5-91-6"
         transform="translate(120.94395,-62.83186)"
         cx="-282.00589"
         cy="-178.65309"
         r="17.109144" />
    </g>
    <g
       style="fill:#000000;stroke:none"
       transform="matrix(0.54363247,0,0,0.54363247,347.15974,648.43397)"
       id="g4984-8-7">
      <g
         style="fill:#000000;stroke:none"
         id="g4977-2-1"
         transform="translate(35.202493,-17.445483)">
        <path
           inkscape:transform-center-y="-0.069157745"
           inkscape:transform-center-x="0.59047885"
           transform="rotate(-20,-217.47783,-882.64919)"
           d="m -259.44614,-326.5824 c -3.34345,6.09687 22.17743,26.11013 16.75532,30.46342 -5.42211,4.35329 -19.44766,-24.8893 -26.12297,-22.94234 -6.67531,1.94697 -2.78083,34.14446 -9.69309,33.38869 -6.91225,-0.75577 3.84783,-31.35097 -2.24904,-34.69441 -6.09687,-3.34345 -26.11013,22.17743 -30.46342,16.75532 -4.35329,-5.42211 24.88931,-19.44766 22.94234,-26.12297 -1.94696,-6.67531 -34.14446,-2.78083 -33.38869,-9.69308 0.75577,-6.91226 31.35097,3.84782 34.69441,-2.24905 3.34345,-6.09687 -22.17743,-26.11012 -16.75532,-30.46342 5.42211,-4.35329 19.44766,24.88931 26.12297,22.94234 6.67531,-1.94696 2.78083,-34.14445 9.69309,-33.38869 6.91225,0.75577 -3.84783,31.35097 2.24904,34.69442 6.09687,3.34344 26.11013,-22.17744 30.46342,-16.75533 4.35329,5.42211 -24.88931,19.44767 -22.94234,26.12297 1.94696,6.67531 34.14446,2.78084 33.38869,9.69309 -0.75577,6.91225 -31.35097,-3.84782 -34.69441,2.24904 z"
           inkscape:randomized="0"
           inkscape:rounded="0.2"
           inkscape:flatsided="false"
           sodipodi:arg2="0.8943031"
           sodipodi:arg1="0.50160402"
           sodipodi:r2="48.745762"
           sodipodi:r1="15.696135"
           sodipodi:cy="-334.12961"
           sodipodi:cx="-273.20871"
           sodipodi:sides="8"
           id="path4936-5-4-1"
           style="fill:#000000;fill-opacity:1;stroke:none;stroke-width:4;stroke-miterlimit:4;stroke-dasharray:none;stroke-opacity:1"
           sodipodi:type="star" />
        <path
           inkscape:transform-center-y="-0.26694487"
           inkscape:transform-center-x="0.53122163"
           transform="translate(190.96573,-14.018692)"
           d="m -259.44614,-326.5824 c -3.34345,6.09687 22.17743,26.11013 16.75532,30.46342 -5.42211,4.35329 -19.44766,-24.8893 -26.12297,-22.94234 -6.67531,1.94697 -2.78083,34.14446 -9.69309,33.38869 -6.91225,-0.75577 3.84783,-31.35097 -2.24904,-34.69441 -6.09687,-3.34345 -26.11013,22.17743 -30.46342,16.75532 -4.35329,-5.42211 24.88931,-19.44766 22.94234,-26.12297 -1.94696,-6.67531 -34.14446,-2.78083 -33.38869,-9.69308 0.75577,-6.91226 31.35097,3.84782 34.69441,-2.24905 3.34345,-6.09687 -22.17743,-26.11012 -16.75532,-30.46342 5.42211,-4.35329 19.44766,24.88931 26.12297,22.94234 6.67531,-1.94696 2.78083,-34.14445 9.69309,-33.38869 6.91225,0.75577 -3.84783,31.35097 2.24904,34.69442 6.09687,3.34344 26.11013,-22.17744 30.46342,-16.75533 4.35329,5.42211 -24.88931,19.44767 -22.94234,26.12297 1.94696,6.67531 34.14446,2.78084 33.38869,9.69309 -0.75577,6.91225 -31.35097,-3.84782 -34.69441,2.24904 z"
           inkscape:randomized="0"
           inkscape:rounded="0.2"
           inkscape:flatsided="false"
           sodipodi:arg2="0.8943031"
           sodipodi:arg1="0.50160402"
           sodipodi:r2="48.745762"
           sodipodi:r1="15.696135"
           sodipodi:cy="-334.12961"
           sodipodi:cx="-273.20871"
           sodipodi:sides="8"
           id="path4936-55-5"
           style="fill:#000000;fill-opacity:1;stroke:none;stroke-width:4;stroke-miterlimit:4;stroke-dasharray:none;stroke-opacity:1"
           sodipodi:type="star" />
        <circle
           transform="matrix(0.44022458,0,0,0.44522337,84.171584,-178.45541)"
           id="path4972-4-6-1-2"
           style="fill:#000000;fill-opacity:1;stroke:none;stroke-width:10;stroke-miterlimit:4;stroke-dasharray:none;stroke-opacity:1"
           cx="-378.02197"
           cy="-381.14102"
           r="26.373627" />
      </g>
    </g>
    <g
       style="fill:#ffffff;stroke:#000000;stroke-width:4.0001169;stroke-miterlimit:4;stroke-dasharray:none;stroke-opacity:1"
       transform="matrix(2.6621722,0,0,2.6621722,-33.986151,71.685708)"
       id="g5677">
      <path
         style="fill:#ffffff;fill-opacity:1;stroke:#000000;stroke-width:4.0001169;stroke-miterlimit:4;stroke-dasharray:none;stroke-opacity:1"
         d="m 293.25701,133.10352 c -2.14902,0.133 -3.63022,1.72089 -2.8125,5.53125 1.72836,8.0536 1.22916,11.55545 0.59375,13.125 -1.05878,-1.65711 -2.3877,-3.99417 -4.09375,-7.5625 -5.37919,-11.25099 -21.81125,5.4395 -9.40625,6.71875 8.15252,0.84071 11.31607,2.38006 12.625,3.46875 -1.90161,0.4925 -4.54122,1.04588 -8.4375,1.5625 -2.12482,0.28172 -3.53363,1.16066 -4.4375,2.3125 2.80826,2.39207 5.57948,5.23181 7.90625,8.71875 3.34515,-7.55314 5.81533,-10.07946 7.25,-10.96875 -0.11809,1.96216 -0.40944,4.65046 -1.125,8.53125 -2.26131,12.26405 20.81518,8.42014 11.53125,0.0937 -6.14243,-5.50891 -7.75131,-8.64033 -8.15625,-10.28125 1.82947,0.71871 4.25047,1.83977 7.71875,3.71875 4.08266,2.21182 7.15412,0.39648 8.8125,-2.4375 -2.13717,-3.08992 -4.0438,-5.6963 -5.1875,-7.09375 -0.24245,-0.39742 -0.39902,-0.66528 -0.625,-1.03125 -6.62505,3.75176 -9.95372,4.32763 -11.59375,4.21875 1.24896,-1.51578 3.06029,-3.51304 5.90625,-6.21875 1.2051,-1.14571 1.85883,-2.3145 2.125,-3.46875 -2.06826,-2.9722 -3.96206,-5.18511 -6.875,-8.75 -0.60139,-0.1411 -1.17606,-0.22109 -1.71875,-0.1875 z m -0.75,20.3125 c 0.002,0.0522 -10e-4,0.13272 0,0.1875 0.0563,0.017 0.12861,0.0442 0.1875,0.0625 -0.0519,0.019 -0.13272,0.043 -0.1875,0.0625 9.8e-4,0.0471 -6.7e-4,0.10737 0,0.15625 -0.0266,-0.0341 -0.0663,-0.0894 -0.0937,-0.125 -0.0562,0.0197 -0.12831,0.0424 -0.1875,0.0625 0.0282,-0.0419 0.0638,-0.11264 0.0937,-0.15625 -0.0326,-0.0429 -0.0601,-0.11118 -0.0937,-0.15625 0.0446,0.0128 0.10982,0.0488 0.15625,0.0625 0.0341,-0.0492 0.0887,-0.10498 0.125,-0.15625 z m -0.125,0.15625 c -0.0192,0.0277 -0.044,0.0667 -0.0625,0.0937 0.0236,0.031 0.0707,0.0638 0.0937,0.0937 0.0281,-0.01 0.0664,-0.0215 0.0937,-0.0312 -7.8e-4,-0.0377 9.7e-4,-0.0885 0,-0.125 -0.0367,-0.0111 -0.0894,-0.0208 -0.125,-0.0312 z"
         id="path7952-8"
         inkscape:connector-curvature="0" />
      <circle
         style="fill:#ffffff;fill-opacity:1;stroke:#000000;stroke-width:13.8714988;stroke-miterlimit:4;stroke-dasharray:none;stroke-opacity:1"
         id="path4974-5-91-2-4-7"
         transform="matrix(0.28836948,0,0,0.28836948,373.44493,205.79066)"
         cx="-282.00589"
         cy="-178.65309"
         r="17.109144" />
    </g>
    <path
       inkscape:connector-curvature="0"
       id="path7952-7-9"
       d="m 260.1599,511.65306 c -2.5707,0.11234 -5.32767,1.23572 -8.06971,3.74368 -0.76631,0.70089 -1.36601,1.19499 -2.07982,1.83024 -2.14401,4.47373 -4.26355,8.86461 -6.15627,13.22767 4.05153,-0.0756 10.23344,0.65857 20.04948,3.4941 19.27809,5.56884 10.13814,-22.90208 -3.74368,-22.29569 z m -17.5537,21.96292 c -1.6572,3.91139 -3.24356,7.79644 -4.74199,11.647 0.45656,3.18662 0.84183,6.89899 0.99831,11.64701 0.7834,23.76939 34.66465,-5.32448 13.97641,-17.05455 -4.32047,-2.44965 -7.55418,-4.44742 -10.23273,-6.23946 z"
       style="fill:#ffffff;fill-opacity:1;stroke:#000000;stroke-width:7;stroke-miterlimit:4;stroke-dasharray:none;stroke-opacity:1" />
  </g>
</svg>
